<?xml version="1.0" encoding="UTF-8"?>
<svg xmlns="http://www.w3.org/2000/svg" xmlns:xlink="http://www.w3.org/1999/xlink" width="50pt" height="50pt" viewBox="0 0 50 50" version="1.1">
<g id="surface1">
<path style=" stroke:none;fill-rule:nonzero;fill:rgb(0%,0%,0%);fill-opacity:1;" d="M 41.320312 1.421875 C 40.839844 1.550781 40.71875 1.652344 40.398438 2.1875 C 40.324219 2.308594 40.238281 2.445312 40.203125 2.488281 C 40.132812 2.574219 40.085938 2.671875 39.957031 3.015625 C 39.890625 3.179688 39.761719 3.332031 39.679688 3.332031 C 39.609375 3.332031 39.488281 3.546875 39.515625 3.628906 C 39.527344 3.671875 39.519531 3.699219 39.484375 3.710938 C 39.445312 3.726562 39.441406 3.742188 39.46875 3.757812 C 39.496094 3.773438 39.488281 3.789062 39.4375 3.804688 C 39.398438 3.816406 39.375 3.84375 39.386719 3.859375 C 39.40625 3.890625 39.246094 4.058594 39.097656 4.160156 C 39.046875 4.191406 38.988281 4.261719 38.957031 4.316406 C 38.90625 4.414062 38.90625 4.417969 38.984375 4.394531 C 39.027344 4.382812 39.113281 4.351562 39.179688 4.324219 C 39.351562 4.246094 39.40625 4.28125 39.363281 4.425781 C 39.308594 4.589844 39.140625 4.714844 39.003906 4.6875 C 38.894531 4.667969 38.894531 4.667969 38.753906 4.957031 C 38.679688 5.113281 38.558594 5.355469 38.488281 5.488281 C 38.414062 5.621094 38.363281 5.753906 38.371094 5.773438 C 38.378906 5.796875 38.371094 5.816406 38.355469 5.816406 C 38.308594 5.816406 38.101562 6.238281 38.117188 6.304688 C 38.128906 6.347656 38.117188 6.371094 38.085938 6.371094 C 38.058594 6.371094 38.007812 6.410156 37.976562 6.460938 C 37.949219 6.511719 37.832031 6.65625 37.730469 6.785156 C 37.515625 7.046875 37.496094 7.136719 37.601562 7.351562 L 37.664062 7.480469 L 37.566406 7.480469 C 37.445312 7.480469 37.378906 7.40625 37.375 7.269531 L 37.375 7.171875 L 37.3125 7.269531 C 37.230469 7.40625 37.152344 7.464844 37 7.515625 C 36.769531 7.582031 36.597656 7.703125 36.511719 7.851562 C 36.453125 7.957031 36.417969 8.101562 36.367188 8.476562 C 36.3125 8.832031 36.277344 8.996094 36.226562 9.078125 C 36.160156 9.1875 35.949219 9.476562 35.875 9.554688 C 35.859375 9.574219 35.878906 9.632812 35.929688 9.695312 C 36.015625 9.8125 36.015625 9.921875 35.933594 9.972656 C 35.859375 10.019531 35.746094 9.890625 35.742188 9.757812 L 35.742188 9.667969 L 35.492188 9.800781 C 35.167969 9.972656 35.113281 10.023438 34.960938 10.304688 C 34.894531 10.433594 34.800781 10.566406 34.761719 10.601562 C 34.683594 10.671875 34.46875 11.089844 34.46875 11.171875 C 34.46875 11.242188 34.339844 11.433594 34.136719 11.664062 C 33.996094 11.828125 33.695312 12.289062 33.613281 12.476562 C 33.597656 12.511719 33.355469 12.644531 33.304688 12.644531 C 33.277344 12.644531 33.257812 12.65625 33.257812 12.667969 C 33.257812 12.714844 33.375 12.808594 33.425781 12.808594 C 33.453125 12.808594 33.578125 12.710938 33.710938 12.589844 L 33.949219 12.371094 L 34.335938 12.460938 C 34.550781 12.507812 34.734375 12.546875 34.742188 12.546875 C 34.753906 12.546875 34.761719 12.570312 34.761719 12.609375 C 34.761719 12.640625 34.785156 12.6875 34.8125 12.710938 C 34.878906 12.765625 34.875 12.785156 34.761719 12.847656 C 34.710938 12.882812 34.664062 12.929688 34.664062 12.957031 C 34.664062 12.984375 34.652344 13.003906 34.632812 13.003906 C 34.613281 13.003906 34.597656 13.023438 34.597656 13.046875 C 34.597656 13.070312 34.675781 13.109375 34.773438 13.140625 C 34.921875 13.1875 36.269531 13.808594 36.609375 13.988281 C 36.679688 14.027344 36.921875 14.175781 37.148438 14.320312 C 37.371094 14.464844 37.761719 14.710938 38.011719 14.867188 C 38.65625 15.265625 38.929688 15.476562 39.417969 15.9375 C 39.847656 16.339844 40.117188 16.632812 40.558594 17.160156 C 40.804688 17.457031 41.042969 17.6875 41.460938 18.023438 C 41.738281 18.25 41.984375 18.394531 42.234375 18.472656 C 42.371094 18.519531 42.441406 18.570312 42.613281 18.761719 C 42.804688 18.980469 42.828125 19.019531 42.882812 19.253906 C 42.941406 19.5 42.941406 19.515625 42.882812 19.753906 L 42.820312 20 L 42.703125 19.980469 C 42.640625 19.972656 42.449219 19.953125 42.28125 19.9375 C 42.003906 19.917969 41.96875 19.925781 41.929688 19.976562 C 41.902344 20.011719 41.882812 20.078125 41.882812 20.125 C 41.882812 20.203125 41.910156 20.226562 42.101562 20.304688 C 42.320312 20.398438 42.429688 20.511719 42.394531 20.601562 C 42.378906 20.640625 42.347656 20.652344 42.261719 20.636719 L 42.148438 20.613281 L 42.078125 20.84375 L 42.003906 21.078125 L 42.121094 21.316406 C 42.226562 21.527344 42.242188 21.59375 42.242188 21.785156 C 42.242188 21.996094 42.234375 22.015625 42.082031 22.242188 C 41.902344 22.519531 41.625 22.738281 41.242188 22.902344 L 41.003906 23.007812 L 40.734375 22.902344 C 40.585938 22.84375 40.394531 22.757812 40.308594 22.71875 C 40.144531 22.636719 39.777344 22.5625 39.34375 22.527344 C 39.195312 22.515625 38.96875 22.472656 38.835938 22.441406 L 38.601562 22.382812 L 38.40625 22.574219 C 38.179688 22.796875 37.886719 22.945312 37.550781 23.003906 C 37.335938 23.039062 37.277344 23.078125 37.339844 23.140625 C 37.367188 23.167969 37.359375 23.191406 37.320312 23.234375 C 37.246094 23.316406 37.28125 23.335938 37.4375 23.292969 C 37.566406 23.261719 37.589844 23.265625 37.75 23.355469 C 37.90625 23.449219 37.929688 23.476562 38.011719 23.691406 L 38.109375 23.921875 L 38.394531 24.066406 C 38.6875 24.210938 39.222656 24.371094 39.421875 24.371094 C 39.484375 24.371094 39.53125 24.386719 39.53125 24.40625 C 39.53125 24.421875 39.519531 24.4375 39.503906 24.4375 C 39.453125 24.4375 38.953125 24.730469 38.894531 24.796875 C 38.738281 24.96875 39.0625 24.871094 39.386719 24.648438 C 39.503906 24.570312 39.613281 24.503906 39.628906 24.503906 C 39.648438 24.503906 39.664062 24.480469 39.664062 24.453125 C 39.664062 24.402344 39.691406 24.40625 40.085938 24.492188 C 40.40625 24.558594 40.480469 24.597656 40.480469 24.6875 C 40.480469 24.789062 40.382812 24.808594 40.105469 24.78125 C 39.847656 24.753906 39.539062 24.839844 39.15625 25.042969 C 39.003906 25.125 38.75 25.214844 38.546875 25.269531 C 38.207031 25.355469 38.148438 25.390625 38.230469 25.433594 C 38.25 25.449219 38.242188 25.480469 38.207031 25.519531 C 38.125 25.609375 38.171875 25.632812 38.320312 25.566406 L 38.449219 25.507812 L 38.527344 25.597656 C 38.597656 25.679688 38.601562 25.695312 38.570312 25.960938 L 38.542969 26.234375 L 38.359375 26.304688 C 37.519531 26.621094 37.238281 26.65625 36.769531 26.511719 C 36.46875 26.417969 36.09375 26.347656 35.742188 26.316406 C 35.609375 26.304688 35.402344 26.269531 35.289062 26.230469 C 35.171875 26.199219 35.054688 26.167969 35.027344 26.167969 C 34.996094 26.167969 34.902344 26.257812 34.8125 26.363281 L 34.65625 26.554688 L 34.382812 26.578125 C 34.050781 26.609375 33.625 26.5625 33.144531 26.449219 C 32.949219 26.40625 32.617188 26.347656 32.410156 26.328125 C 32.027344 26.289062 31.796875 26.21875 31.257812 25.976562 C 30.878906 25.808594 30.519531 25.714844 29.960938 25.644531 C 29.25 25.550781 29.015625 25.464844 28.722656 25.179688 C 28.609375 25.070312 28.457031 24.875 28.382812 24.753906 C 28.285156 24.59375 28.1875 24.496094 28.046875 24.394531 C 27.941406 24.320312 27.523438 23.929688 27.117188 23.523438 C 26.363281 22.765625 25.910156 22.375 25.492188 22.125 C 25.304688 22.011719 25.230469 21.941406 25.121094 21.769531 L 24.980469 21.554688 L 25.0625 21.496094 C 25.105469 21.460938 25.210938 21.382812 25.292969 21.328125 C 25.378906 21.269531 25.449219 21.203125 25.449219 21.1875 C 25.449219 21.167969 25.375 21.066406 25.285156 20.957031 C 25.109375 20.75 25.113281 20.78125 25.179688 20.449219 C 25.191406 20.375 25.164062 20.347656 24.773438 20.117188 C 24.546875 19.980469 24.3125 19.847656 24.253906 19.816406 C 24.15625 19.773438 24.152344 19.753906 24.128906 19.539062 C 24.101562 19.277344 24.078125 19.316406 24.398438 19.09375 L 24.570312 18.976562 L 24.839844 19.039062 C 25.121094 19.113281 25.253906 19.105469 25.253906 19.023438 C 25.253906 18.933594 24.210938 18.523438 23.761719 18.441406 C 23.605469 18.410156 23.390625 18.34375 23.292969 18.296875 C 23.191406 18.242188 22.984375 18.171875 22.832031 18.132812 C 22.683594 18.09375 22.488281 18.019531 22.394531 17.960938 C 22.222656 17.859375 21.738281 17.472656 21.34375 17.128906 C 21.132812 16.945312 21.007812 16.878906 21.007812 16.945312 C 21.007812 16.960938 21.199219 17.148438 21.433594 17.363281 C 21.667969 17.578125 21.855469 17.773438 21.855469 17.796875 C 21.855469 17.820312 21.832031 17.847656 21.800781 17.863281 C 21.769531 17.871094 21.71875 17.910156 21.6875 17.945312 C 21.636719 18.015625 21.636719 18.015625 21.480469 17.890625 C 21.316406 17.75 21.011719 17.640625 20.550781 17.558594 C 20.125 17.476562 19.820312 17.34375 19.527344 17.101562 C 19.277344 16.894531 19.210938 16.859375 19.210938 16.921875 C 19.210938 16.960938 19.476562 17.316406 19.503906 17.316406 C 19.539062 17.316406 19.765625 17.542969 19.765625 17.578125 C 19.765625 17.597656 19.726562 17.609375 19.679688 17.609375 C 19.597656 17.609375 19.078125 17.242188 19.078125 17.1875 C 19.078125 17.152344 18.851562 16.976562 18.835938 16.996094 C 18.824219 17.003906 18.917969 17.132812 19.039062 17.28125 C 19.226562 17.519531 19.25 17.5625 19.214844 17.617188 C 19.195312 17.648438 19.183594 17.691406 19.195312 17.707031 C 19.207031 17.726562 19.191406 17.742188 19.160156 17.742188 C 19.101562 17.742188 18.972656 17.648438 18.660156 17.390625 C 18.476562 17.234375 18.394531 17.1875 18.394531 17.234375 C 18.394531 17.242188 18.519531 17.394531 18.671875 17.566406 C 18.824219 17.742188 18.945312 17.886719 18.9375 17.894531 C 18.917969 17.917969 18.71875 17.769531 18.441406 17.523438 C 18.3125 17.40625 18.179688 17.316406 18.152344 17.316406 C 18.050781 17.316406 18.109375 17.410156 18.304688 17.558594 C 18.441406 17.660156 18.460938 17.707031 18.359375 17.707031 C 18.324219 17.707031 18.203125 17.753906 18.09375 17.808594 L 17.894531 17.910156 L 17.613281 17.859375 C 17.453125 17.828125 17.292969 17.777344 17.242188 17.738281 C 17.121094 17.648438 16.941406 17.660156 16.941406 17.757812 C 16.941406 17.804688 17.007812 17.859375 17.203125 17.960938 C 17.492188 18.109375 17.523438 18.117188 18.117188 18.167969 C 18.640625 18.210938 18.980469 18.296875 19.308594 18.460938 C 19.488281 18.550781 19.632812 18.59375 19.816406 18.621094 C 20.136719 18.664062 20.421875 18.773438 20.398438 18.839844 C 20.386719 18.863281 20.398438 18.910156 20.421875 18.941406 C 20.464844 18.988281 20.453125 18.992188 20.289062 18.96875 C 19.789062 18.90625 19.320312 18.820312 18.949219 18.714844 C 18.722656 18.648438 18.421875 18.570312 18.28125 18.539062 C 17.753906 18.425781 17.253906 18.261719 16.777344 18.050781 C 16.183594 17.789062 15.296875 17.335938 15.207031 17.246094 C 15.144531 17.183594 15.144531 17.183594 15.207031 17.140625 C 15.40625 17 15.40625 17 15.359375 16.941406 C 15.300781 16.871094 14.839844 16.625 14.535156 16.5 C 14.347656 16.421875 14.246094 16.351562 14.082031 16.1875 C 13.894531 16.003906 13.839844 15.96875 13.65625 15.917969 C 13.480469 15.867188 13.363281 15.800781 12.988281 15.519531 C 12.738281 15.328125 12.425781 15.109375 12.289062 15.027344 C 11.980469 14.84375 11.9375 14.761719 12.066406 14.589844 C 12.113281 14.527344 12.152344 14.457031 12.152344 14.433594 C 12.152344 14.40625 12.058594 14.308594 11.941406 14.210938 C 11.691406 14.003906 11.433594 13.707031 10.976562 13.085938 C 10.582031 12.550781 10.152344 12.089844 10.039062 12.089844 C 9.945312 12.089844 9.945312 12.152344 10.035156 12.265625 L 10.097656 12.351562 L 10.03125 12.351562 C 9.992188 12.351562 9.863281 12.265625 9.742188 12.15625 C 9.554688 11.992188 9.511719 11.929688 9.449219 11.753906 C 9.410156 11.640625 9.375 11.472656 9.375 11.375 L 9.375 11.203125 L 9.234375 11.222656 C 9.105469 11.242188 9.082031 11.230469 8.894531 11.09375 C 8.789062 11.011719 8.683594 10.929688 8.667969 10.90625 C 8.617188 10.84375 8.472656 10.34375 8.425781 10.082031 C 8.398438 9.90625 8.398438 9.792969 8.429688 9.585938 C 8.464844 9.332031 8.476562 9.308594 8.660156 9.078125 C 8.867188 8.824219 8.929688 8.765625 9.195312 8.5625 C 9.414062 8.398438 9.65625 8.277344 9.992188 8.164062 C 10.140625 8.113281 10.363281 8.015625 10.484375 7.949219 L 10.699219 7.824219 L 10.589844 7.816406 C 10.527344 7.808594 10.394531 7.832031 10.292969 7.867188 C 10.195312 7.902344 10.058594 7.9375 9.992188 7.949219 C 9.933594 7.957031 9.8125 7.996094 9.734375 8.03125 C 9.65625 8.066406 9.5 8.136719 9.394531 8.183594 C 9.285156 8.230469 9.136719 8.324219 9.066406 8.394531 C 8.996094 8.460938 8.859375 8.5625 8.769531 8.617188 C 8.601562 8.722656 8.445312 8.917969 8.296875 9.214844 C 8.191406 9.414062 8.167969 9.996094 8.25 10.355469 C 8.277344 10.492188 8.316406 10.679688 8.332031 10.773438 C 8.363281 10.976562 8.457031 11.136719 8.617188 11.273438 L 8.738281 11.371094 L 8.734375 11.65625 C 8.71875 12.136719 8.839844 12.363281 9.207031 12.558594 C 9.335938 12.625 9.476562 12.730469 9.53125 12.792969 C 9.640625 12.9375 10.28125 13.578125 10.539062 13.804688 C 10.734375 13.976562 10.773438 14.027344 11.101562 14.550781 C 11.214844 14.734375 11.332031 14.894531 11.363281 14.910156 C 11.390625 14.925781 11.472656 14.996094 11.546875 15.0625 C 11.621094 15.125 11.738281 15.214844 11.8125 15.257812 C 12.003906 15.371094 12.105469 15.449219 12.328125 15.652344 C 12.4375 15.75 12.683594 15.933594 12.871094 16.058594 C 13.0625 16.183594 13.261719 16.324219 13.3125 16.371094 C 13.472656 16.519531 14.0625 16.921875 14.5 17.1875 C 14.628906 17.265625 14.851562 17.402344 14.988281 17.484375 C 15.371094 17.714844 15.554688 17.816406 15.714844 17.882812 C 15.796875 17.921875 16.007812 18.015625 16.1875 18.101562 C 16.367188 18.183594 16.550781 18.265625 16.597656 18.28125 C 16.644531 18.292969 16.796875 18.359375 16.9375 18.433594 C 17.082031 18.503906 17.265625 18.570312 17.355469 18.582031 C 17.441406 18.589844 17.570312 18.625 17.636719 18.660156 C 17.703125 18.695312 17.816406 18.71875 17.890625 18.71875 C 17.964844 18.71875 18.097656 18.75 18.183594 18.78125 C 18.273438 18.816406 18.433594 18.863281 18.539062 18.882812 C 18.871094 18.957031 19.074219 19.007812 19.144531 19.046875 C 19.222656 19.089844 19.472656 19.140625 19.816406 19.179688 C 19.941406 19.195312 20.117188 19.222656 20.207031 19.242188 C 20.296875 19.261719 20.445312 19.292969 20.535156 19.308594 C 20.625 19.324219 20.796875 19.359375 20.925781 19.386719 C 21.050781 19.417969 21.199219 19.4375 21.257812 19.4375 C 21.316406 19.4375 21.394531 19.453125 21.4375 19.46875 C 21.480469 19.484375 21.59375 19.515625 21.695312 19.539062 C 21.792969 19.558594 21.949219 19.625 22.035156 19.683594 C 22.128906 19.742188 22.234375 19.796875 22.273438 19.8125 C 22.3125 19.824219 22.371094 19.882812 22.398438 19.9375 C 22.429688 19.996094 22.480469 20.078125 22.515625 20.117188 C 22.574219 20.175781 22.582031 20.214844 22.5625 20.394531 C 22.550781 20.507812 22.527344 20.710938 22.515625 20.84375 C 22.492188 21.0625 22.410156 21.339844 22.335938 21.457031 C 22.320312 21.480469 22.253906 21.523438 22.191406 21.554688 C 22.089844 21.597656 21.953125 21.605469 21.285156 21.597656 C 20.839844 21.59375 20.449219 21.578125 20.382812 21.558594 C 20.316406 21.539062 20.1875 21.535156 20.089844 21.542969 C 19.992188 21.554688 19.742188 21.574219 19.539062 21.59375 C 19.097656 21.632812 18.878906 21.671875 18.71875 21.734375 C 18.660156 21.761719 18.523438 21.800781 18.425781 21.824219 C 18.328125 21.84375 18.203125 21.875 18.148438 21.894531 C 17.980469 21.957031 17.121094 22.355469 16.890625 22.476562 C 16.828125 22.511719 16.695312 22.570312 16.597656 22.609375 C 16.167969 22.777344 15.1875 23.257812 15.078125 23.355469 C 15.042969 23.390625 14.847656 23.5 14.640625 23.601562 C 14.210938 23.816406 13.8125 24.074219 13.484375 24.351562 C 13.410156 24.417969 13.261719 24.539062 13.15625 24.625 C 12.917969 24.820312 12.753906 24.984375 12.464844 25.320312 C 12.339844 25.46875 12.054688 25.769531 11.835938 26 C 11.441406 26.410156 11.390625 26.476562 11.152344 26.824219 C 11.085938 26.921875 10.949219 27.089844 10.847656 27.199219 C 10.746094 27.304688 10.632812 27.445312 10.601562 27.507812 C 10.535156 27.640625 10.464844 27.738281 10.269531 27.96875 C 10.191406 28.058594 10.097656 28.183594 10.0625 28.253906 C 10.027344 28.320312 9.949219 28.441406 9.890625 28.523438 C 9.765625 28.6875 9.636719 28.929688 9.335938 29.566406 C 9.214844 29.808594 9.015625 30.199219 8.878906 30.433594 C 8.75 30.664062 8.613281 30.921875 8.578125 31.003906 C 8.519531 31.136719 8.363281 31.398438 8.148438 31.722656 C 8.109375 31.785156 8.019531 31.957031 7.957031 32.097656 C 7.890625 32.242188 7.808594 32.417969 7.773438 32.492188 C 7.632812 32.789062 7.570312 33.128906 7.65625 33.128906 C 7.71875 33.128906 7.976562 32.664062 8.21875 32.117188 C 8.335938 31.839844 8.503906 31.503906 8.582031 31.378906 C 8.90625 30.878906 9.222656 30.289062 9.539062 29.621094 C 9.789062 29.085938 10.3125 28.265625 10.796875 27.65625 C 10.953125 27.457031 11.191406 27.148438 11.332031 26.96875 C 11.46875 26.789062 11.730469 26.488281 11.910156 26.300781 C 12.261719 25.9375 12.558594 25.59375 12.816406 25.269531 C 12.902344 25.15625 13.042969 25.019531 13.128906 24.957031 C 13.210938 24.898438 13.457031 24.707031 13.671875 24.535156 C 14.140625 24.160156 14.960938 23.691406 15.34375 23.574219 C 15.484375 23.53125 15.839844 23.464844 16.132812 23.425781 L 16.667969 23.355469 L 16.933594 23.4375 L 17.203125 23.519531 L 17.460938 23.453125 C 17.695312 23.394531 17.742188 23.390625 18.015625 23.429688 C 18.273438 23.464844 18.59375 23.46875 19.285156 23.449219 C 19.574219 23.4375 20.34375 23.523438 20.871094 23.625 C 21.351562 23.710938 21.382812 23.714844 21.621094 23.671875 C 21.761719 23.648438 21.992188 23.617188 22.132812 23.605469 C 22.375 23.585938 22.414062 23.574219 22.648438 23.417969 L 22.898438 23.253906 L 23.0625 23.292969 C 23.210938 23.328125 23.234375 23.351562 23.339844 23.523438 C 23.457031 23.710938 23.460938 23.714844 23.730469 23.796875 C 23.882812 23.84375 24.117188 23.90625 24.257812 23.933594 C 24.449219 23.96875 24.59375 24.027344 24.824219 24.152344 C 24.992188 24.246094 25.140625 24.34375 25.148438 24.371094 C 25.160156 24.398438 25.101562 24.480469 24.984375 24.589844 C 24.835938 24.726562 24.800781 24.777344 24.808594 24.851562 C 24.8125 24.933594 24.832031 24.945312 24.933594 24.953125 C 25.035156 24.964844 25.082031 24.996094 25.214844 25.148438 C 25.355469 25.3125 25.394531 25.390625 25.511719 25.757812 C 25.585938 25.988281 25.648438 26.195312 25.648438 26.214844 C 25.648438 26.234375 25.804688 26.332031 25.996094 26.429688 C 26.1875 26.527344 26.539062 26.726562 26.773438 26.867188 C 27.71875 27.441406 27.824219 27.484375 28.550781 27.625 C 28.691406 27.652344 28.910156 27.707031 29.039062 27.75 C 29.257812 27.824219 29.304688 27.828125 29.753906 27.8125 L 30.238281 27.792969 L 30.519531 27.566406 L 30.605469 27.648438 C 30.824219 27.859375 31.988281 28.285156 32.539062 28.359375 C 32.695312 28.378906 33.046875 28.453125 33.324219 28.523438 C 33.601562 28.589844 33.941406 28.664062 34.082031 28.683594 C 34.292969 28.710938 34.402344 28.753906 34.785156 28.949219 C 35.144531 29.136719 35.28125 29.226562 35.453125 29.398438 C 35.625 29.5625 35.675781 29.640625 35.691406 29.734375 C 35.710938 29.832031 35.730469 29.859375 35.800781 29.871094 C 35.851562 29.882812 35.898438 29.882812 35.910156 29.875 C 35.921875 29.867188 35.9375 29.761719 35.953125 29.636719 L 35.972656 29.410156 L 36.230469 29.242188 C 36.570312 29.019531 36.640625 29.027344 36.671875 29.289062 C 36.703125 29.523438 36.730469 29.542969 36.953125 29.484375 C 37.230469 29.414062 37.230469 29.417969 37.210938 29.769531 C 37.195312 29.960938 37.152344 30.175781 37.101562 30.335938 C 37.007812 30.628906 36.992188 30.96875 37.050781 31.316406 C 37.089844 31.503906 37.085938 31.546875 36.964844 32.03125 C 36.878906 32.375 36.832031 32.519531 36.820312 32.472656 C 36.8125 32.429688 36.769531 32.390625 36.738281 32.382812 C 36.652344 32.371094 36.527344 32.304688 36.527344 32.277344 C 36.527344 32.265625 36.550781 32.246094 36.585938 32.238281 C 36.628906 32.226562 36.664062 32.15625 36.707031 32 L 36.765625 31.777344 L 36.566406 31.597656 C 36.410156 31.457031 36.351562 31.375 36.308594 31.238281 C 36.273438 31.140625 36.222656 31.050781 36.191406 31.03125 C 36.113281 30.988281 35.90625 31.082031 35.90625 31.160156 C 35.90625 31.191406 35.875 31.3125 35.839844 31.421875 C 35.730469 31.777344 35.734375 31.777344 36.035156 31.808594 C 36.179688 31.820312 36.296875 31.839844 36.296875 31.851562 C 36.296875 31.859375 36.253906 31.960938 36.191406 32.074219 L 36.085938 32.277344 L 35.914062 32.277344 C 35.738281 32.277344 35.679688 32.316406 35.738281 32.390625 C 35.765625 32.421875 35.761719 32.445312 35.726562 32.476562 C 35.648438 32.539062 35.667969 32.566406 35.816406 32.589844 C 35.890625 32.597656 36.09375 32.648438 36.257812 32.691406 L 36.5625 32.773438 L 36.691406 32.671875 C 36.761719 32.613281 36.820312 32.574219 36.820312 32.578125 C 36.820312 32.585938 36.777344 32.699219 36.726562 32.835938 C 36.671875 32.96875 36.613281 33.191406 36.589844 33.324219 C 36.570312 33.457031 36.5 33.699219 36.441406 33.855469 C 36.355469 34.078125 36.332031 34.195312 36.332031 34.355469 C 36.332031 34.539062 36.3125 34.605469 36.1875 34.855469 C 36.074219 35.078125 36.039062 35.1875 36.019531 35.382812 C 36.007812 35.515625 35.964844 35.714844 35.921875 35.824219 C 35.882812 35.933594 35.835938 36.132812 35.824219 36.265625 C 35.804688 36.472656 35.761719 36.597656 35.5625 37.039062 C 35.367188 37.476562 35.320312 37.609375 35.300781 37.808594 C 35.285156 37.984375 35.253906 38.089844 35.179688 38.21875 C 35.128906 38.3125 35.089844 38.410156 35.097656 38.429688 C 35.105469 38.453125 35.25 38.527344 35.414062 38.601562 C 35.746094 38.742188 36.230469 39.027344 36.5 39.242188 C 37.070312 39.691406 37.589844 40.332031 37.769531 40.824219 C 37.871094 41.085938 37.878906 41.144531 37.878906 41.476562 C 37.878906 41.761719 37.863281 41.910156 37.789062 42.210938 C 37.734375 42.417969 37.691406 42.589844 37.691406 42.59375 C 37.6875 42.597656 37.574219 42.621094 37.445312 42.652344 C 37.171875 42.710938 37.179688 42.703125 36.753906 43.078125 L 36.429688 43.359375 L 36.429688 43.808594 C 36.429688 44.277344 36.390625 44.558594 36.25 45.070312 L 36.167969 45.363281 L 36.242188 45.417969 C 36.3125 45.476562 36.316406 45.476562 36.382812 45.394531 C 36.53125 45.214844 36.589844 44.894531 36.617188 44.191406 L 36.640625 43.640625 L 36.902344 43.539062 C 37.046875 43.488281 37.222656 43.433594 37.292969 43.421875 C 37.476562 43.378906 37.648438 43.304688 37.707031 43.234375 C 37.789062 43.140625 37.96875 42.664062 37.988281 42.488281 C 37.996094 42.398438 38.027344 42.273438 38.054688 42.210938 C 38.136719 42.042969 38.148438 41.382812 38.078125 41.046875 C 38.046875 40.90625 38.007812 40.726562 37.992188 40.644531 C 37.933594 40.355469 37.691406 40.007812 37.230469 39.539062 C 36.996094 39.300781 36.746094 39.0625 36.671875 39.007812 C 36.328125 38.757812 36.03125 38.566406 35.78125 38.449219 C 35.566406 38.34375 35.511719 38.304688 35.53125 38.261719 C 35.613281 38.082031 35.839844 37.34375 35.839844 37.273438 C 35.839844 37.238281 35.882812 37.113281 35.9375 37 C 36.046875 36.769531 36.328125 35.929688 36.390625 35.644531 C 36.414062 35.546875 36.457031 35.398438 36.484375 35.316406 C 36.53125 35.175781 36.550781 35.074219 36.625 34.550781 C 36.695312 34.046875 36.792969 33.648438 36.878906 33.472656 C 36.90625 33.417969 36.9375 33.296875 36.949219 33.195312 C 36.964844 33.097656 37.023438 32.902344 37.082031 32.769531 C 37.136719 32.636719 37.199219 32.441406 37.21875 32.34375 C 37.269531 32.078125 37.300781 31.917969 37.339844 31.773438 C 37.417969 31.492188 37.449219 31.300781 37.476562 31.003906 C 37.488281 30.835938 37.515625 30.613281 37.535156 30.515625 C 37.554688 30.417969 37.582031 30.269531 37.589844 30.1875 C 37.609375 30.042969 37.691406 29.722656 37.789062 29.4375 C 37.820312 29.355469 37.851562 29.144531 37.871094 28.964844 C 37.910156 28.5 37.933594 28.382812 38.039062 28.257812 C 38.144531 28.128906 38.296875 27.929688 38.4375 27.734375 C 38.492188 27.660156 38.652344 27.472656 38.796875 27.320312 C 39.003906 27.105469 39.105469 27.023438 39.269531 26.945312 C 39.539062 26.828125 39.777344 26.667969 39.925781 26.511719 C 39.984375 26.449219 40.132812 26.339844 40.25 26.273438 C 40.730469 26.007812 41.292969 25.425781 41.542969 24.929688 C 41.6875 24.648438 41.703125 24.597656 41.714844 24.34375 L 41.726562 24.0625 L 41.984375 23.800781 C 42.261719 23.511719 42.324219 23.410156 42.378906 23.152344 C 42.398438 23.0625 42.429688 22.925781 42.445312 22.851562 C 42.464844 22.78125 42.488281 22.464844 42.503906 22.152344 L 42.523438 21.582031 L 42.726562 21.464844 C 42.839844 21.398438 42.960938 21.304688 43 21.246094 C 43.085938 21.109375 43.160156 20.75 43.15625 20.5 C 43.15625 20.394531 43.167969 20.246094 43.1875 20.175781 C 43.242188 19.957031 43.230469 19.621094 43.160156 19.433594 C 43.121094 19.339844 43.09375 19.207031 43.09375 19.140625 C 43.09375 19.019531 42.980469 18.78125 42.816406 18.558594 C 42.703125 18.414062 42.488281 18.289062 42.195312 18.210938 C 42.042969 18.167969 41.960938 18.121094 41.820312 17.984375 C 41.722656 17.890625 41.570312 17.777344 41.488281 17.726562 C 41.34375 17.644531 41.152344 17.453125 40.757812 16.988281 C 40.523438 16.71875 40.015625 16.144531 39.933594 16.066406 C 39.511719 15.652344 39.117188 15.308594 38.945312 15.207031 C 38.828125 15.140625 38.699219 15.054688 38.664062 15.023438 C 38.625 14.984375 38.488281 14.894531 38.367188 14.816406 C 38.246094 14.738281 38.109375 14.648438 38.0625 14.613281 C 38.019531 14.582031 37.886719 14.496094 37.765625 14.425781 C 37.554688 14.296875 37.308594 14.105469 37.308594 14.0625 C 37.308594 14.050781 37.363281 13.9375 37.425781 13.808594 C 37.488281 13.683594 37.539062 13.554688 37.539062 13.527344 C 37.539062 13.5 37.5625 13.429688 37.589844 13.378906 C 37.621094 13.324219 37.695312 13.175781 37.757812 13.050781 C 37.824219 12.925781 37.917969 12.761719 37.96875 12.683594 C 38.105469 12.480469 38.191406 12.296875 38.191406 12.222656 C 38.191406 12.1875 38.230469 12.113281 38.273438 12.0625 C 38.320312 12.007812 38.355469 11.949219 38.355469 11.925781 C 38.355469 11.90625 38.402344 11.851562 38.457031 11.804688 C 38.609375 11.671875 38.910156 11.203125 38.910156 11.09375 C 38.910156 11.0625 38.9375 10.984375 38.96875 10.917969 C 39.003906 10.851562 39.089844 10.679688 39.164062 10.535156 C 39.234375 10.394531 39.320312 10.179688 39.351562 10.0625 C 39.382812 9.945312 39.421875 9.835938 39.4375 9.8125 C 39.453125 9.792969 39.519531 9.671875 39.585938 9.535156 C 39.648438 9.402344 39.738281 9.257812 39.78125 9.214844 C 39.859375 9.128906 39.960938 8.992188 40.109375 8.773438 C 40.191406 8.648438 40.445312 8.160156 40.445312 8.121094 C 40.445312 8.113281 40.488281 8.03125 40.542969 7.941406 C 40.664062 7.738281 40.703125 7.597656 40.746094 7.269531 C 40.761719 7.125 40.785156 6.9375 40.792969 6.859375 C 40.804688 6.765625 40.84375 6.671875 40.894531 6.613281 C 40.941406 6.558594 41 6.472656 41.023438 6.417969 C 41.054688 6.363281 41.171875 6.234375 41.285156 6.128906 C 41.503906 5.929688 41.601562 5.765625 41.769531 5.339844 C 41.820312 5.214844 41.925781 4.972656 42.007812 4.800781 C 42.140625 4.523438 42.160156 4.464844 42.171875 4.199219 C 42.183594 4.039062 42.203125 3.875 42.226562 3.839844 C 42.25 3.804688 42.28125 3.722656 42.292969 3.660156 C 42.3125 3.542969 42.402344 3.292969 42.496094 3.070312 C 42.542969 2.964844 42.605469 2.53125 42.609375 2.308594 C 42.613281 2.261719 42.582031 2.1875 42.550781 2.152344 C 42.46875 2.0625 42.257812 2.085938 42.085938 2.203125 C 42.011719 2.25 41.917969 2.285156 41.855469 2.285156 C 41.75 2.285156 41.746094 2.285156 41.765625 2.1875 C 41.777344 2.132812 41.769531 2.089844 41.753906 2.089844 C 41.734375 2.089844 41.722656 2.117188 41.722656 2.152344 C 41.722656 2.1875 41.691406 2.25 41.652344 2.296875 L 41.585938 2.386719 L 41.683594 2.59375 C 41.742188 2.707031 41.785156 2.808594 41.785156 2.820312 C 41.785156 2.828125 41.695312 2.839844 41.585938 2.839844 C 41.453125 2.835938 41.367188 2.851562 41.339844 2.886719 C 41.296875 2.925781 41.296875 2.9375 41.359375 2.957031 C 41.441406 2.984375 41.445312 3.023438 41.375 3.050781 C 41.28125 3.085938 41.234375 3.070312 41.121094 2.953125 C 41.023438 2.851562 40.996094 2.839844 40.953125 2.875 C 40.921875 2.902344 40.90625 2.957031 40.910156 3.015625 C 40.921875 3.105469 40.941406 3.121094 41.101562 3.171875 C 41.199219 3.203125 41.285156 3.234375 41.289062 3.234375 C 41.292969 3.234375 41.296875 3.246094 41.296875 3.265625 C 41.296875 3.308594 41.144531 3.308594 41.117188 3.265625 C 41.101562 3.242188 41.070312 3.25 41.027344 3.285156 C 40.964844 3.34375 40.964844 3.34375 41.042969 3.40625 L 41.117188 3.464844 L 41 3.464844 C 40.863281 3.464844 40.785156 3.527344 40.84375 3.585938 C 40.875 3.617188 40.871094 3.625 40.828125 3.625 C 40.800781 3.625 40.773438 3.648438 40.773438 3.675781 C 40.773438 3.734375 40.609375 3.742188 40.550781 3.683594 C 40.484375 3.621094 40.503906 3.480469 40.589844 3.402344 C 40.660156 3.335938 40.667969 3.304688 40.652344 3.171875 C 40.636719 3.023438 40.699219 2.828125 40.8125 2.667969 C 40.875 2.585938 40.808594 2.507812 40.644531 2.46875 C 40.539062 2.445312 40.511719 2.425781 40.511719 2.367188 C 40.511719 2.246094 40.546875 2.1875 40.65625 2.144531 C 40.710938 2.121094 40.851562 2.023438 40.96875 1.925781 C 41.085938 1.832031 41.269531 1.710938 41.378906 1.660156 C 41.558594 1.566406 41.589844 1.5625 41.824219 1.578125 C 42.070312 1.597656 42.144531 1.574219 42.144531 1.484375 C 42.144531 1.417969 41.933594 1.339844 41.761719 1.34375 C 41.679688 1.34375 41.480469 1.378906 41.320312 1.421875 Z M 40.296875 4.898438 C 40.304688 4.914062 40.292969 4.941406 40.265625 4.964844 C 40.171875 5.042969 40.238281 5.382812 40.363281 5.460938 C 40.382812 5.480469 40.367188 5.488281 40.324219 5.488281 C 40.285156 5.488281 40.246094 5.5 40.234375 5.519531 C 40.226562 5.539062 40.164062 5.554688 40.109375 5.554688 C 40.027344 5.554688 39.996094 5.535156 39.960938 5.457031 C 39.921875 5.367188 39.925781 5.335938 39.992188 5.167969 C 40.03125 5.066406 40.078125 4.957031 40.09375 4.921875 C 40.125 4.863281 40.265625 4.84375 40.296875 4.898438 Z M 36.847656 10.53125 C 36.929688 10.53125 36.957031 10.546875 36.972656 10.605469 C 36.984375 10.660156 36.964844 10.703125 36.878906 10.777344 C 36.820312 10.832031 36.761719 10.878906 36.75 10.878906 C 36.707031 10.878906 36.65625 11.003906 36.675781 11.054688 C 36.691406 11.085938 36.734375 11.109375 36.789062 11.109375 C 36.839844 11.109375 36.890625 11.121094 36.898438 11.132812 C 36.914062 11.160156 36.351562 11.238281 36.144531 11.238281 C 36.046875 11.238281 36.035156 11.230469 36.035156 11.144531 C 36.035156 11.074219 36.058594 11.042969 36.128906 11.011719 C 36.191406 10.988281 36.253906 10.902344 36.347656 10.730469 L 36.476562 10.484375 L 36.609375 10.511719 C 36.679688 10.523438 36.789062 10.53125 36.847656 10.53125 Z M 35.78125 11.019531 C 35.792969 11.050781 35.832031 11.09375 35.851562 11.117188 C 35.890625 11.152344 35.890625 11.171875 35.835938 11.242188 C 35.734375 11.375 35.734375 11.371094 36.117188 11.519531 L 36.183594 11.542969 L 36.117188 11.554688 C 36.082031 11.5625 36.011719 11.585938 35.96875 11.601562 C 35.898438 11.628906 35.828125 11.621094 35.65625 11.570312 C 35.496094 11.523438 35.378906 11.511719 35.253906 11.523438 L 35.078125 11.542969 L 35.097656 11.417969 C 35.113281 11.34375 35.105469 11.273438 35.082031 11.25 C 35.035156 11.191406 35.066406 11.164062 35.199219 11.160156 C 35.261719 11.15625 35.324219 11.144531 35.335938 11.132812 C 35.351562 11.117188 35.378906 11.109375 35.40625 11.109375 C 35.429688 11.109375 35.402344 11.152344 35.34375 11.203125 C 35.285156 11.253906 35.242188 11.308594 35.253906 11.3125 C 35.261719 11.324219 35.320312 11.335938 35.382812 11.34375 L 35.496094 11.351562 L 35.496094 10.949219 L 35.625 10.957031 C 35.695312 10.964844 35.765625 10.992188 35.78125 11.019531 Z M 10.414062 12.617188 C 10.558594 12.785156 10.851562 13.238281 10.945312 13.445312 C 11.007812 13.585938 11.128906 13.757812 11.269531 13.914062 C 11.414062 14.078125 11.5 14.207031 11.523438 14.292969 C 11.542969 14.367188 11.570312 14.453125 11.582031 14.488281 C 11.609375 14.542969 11.597656 14.546875 11.496094 14.527344 C 11.359375 14.5 11.371094 14.507812 10.832031 13.695312 C 10.292969 12.890625 10.246094 12.800781 10.273438 12.65625 C 10.296875 12.527344 10.320312 12.519531 10.414062 12.617188 Z M 39.757812 22.789062 C 40.144531 22.855469 40.164062 22.863281 40.113281 22.925781 C 40.082031 22.964844 40.085938 22.984375 40.136719 23.019531 C 40.242188 23.09375 40.164062 23.113281 39.882812 23.074219 C 39.605469 23.03125 39.269531 22.914062 39.269531 22.851562 C 39.269531 22.796875 39.34375 22.738281 39.417969 22.738281 C 39.453125 22.738281 39.605469 22.761719 39.757812 22.789062 Z M 39.757812 22.789062 "/>
<path style=" stroke:none;fill-rule:nonzero;fill:rgb(0%,0%,0%);fill-opacity:1;" d="M 11.371094 7.902344 C 11.371094 7.996094 11.371094 7.996094 11.589844 8.015625 C 11.710938 8.027344 11.960938 8.039062 12.148438 8.039062 C 12.476562 8.039062 12.480469 8.039062 12.480469 7.957031 C 12.480469 7.839844 12.339844 7.808594 11.824219 7.808594 L 11.371094 7.808594 Z M 11.371094 7.902344 "/>
<path style=" stroke:none;fill-rule:nonzero;fill:rgb(0%,0%,0%);fill-opacity:1;" d="M 19.570312 8.605469 C 19.570312 8.707031 19.589844 8.71875 19.789062 8.742188 C 20.097656 8.785156 21.566406 9.390625 22.144531 9.714844 C 22.320312 9.8125 22.820312 10.09375 23.261719 10.339844 C 23.703125 10.589844 24.121094 10.832031 24.191406 10.875 C 24.265625 10.925781 24.417969 11.011719 24.535156 11.074219 C 24.652344 11.132812 24.792969 11.214844 24.847656 11.253906 C 24.902344 11.292969 25.050781 11.386719 25.171875 11.453125 C 25.300781 11.523438 25.476562 11.625 25.566406 11.679688 C 25.65625 11.738281 25.890625 11.871094 26.089844 11.972656 C 26.289062 12.078125 26.527344 12.222656 26.621094 12.289062 C 26.714844 12.363281 26.84375 12.441406 26.902344 12.464844 C 27.015625 12.511719 27.148438 12.496094 27.148438 12.433594 C 27.148438 12.390625 26.898438 12.191406 26.730469 12.105469 C 26.664062 12.070312 26.558594 12 26.496094 11.949219 C 26.433594 11.90625 26.292969 11.824219 26.1875 11.773438 C 26.078125 11.722656 25.847656 11.597656 25.667969 11.492188 C 25.496094 11.390625 25.34375 11.304688 25.332031 11.304688 C 25.320312 11.304688 25.230469 11.253906 25.128906 11.191406 C 25.027344 11.132812 24.84375 11.03125 24.714844 10.960938 C 24.589844 10.890625 24.4375 10.800781 24.382812 10.753906 C 24.324219 10.707031 24.226562 10.628906 24.171875 10.582031 C 24.113281 10.53125 23.832031 10.375 23.554688 10.234375 C 23.277344 10.09375 22.953125 9.917969 22.84375 9.855469 C 22.730469 9.789062 22.632812 9.734375 22.625 9.734375 C 22.621094 9.734375 22.492188 9.664062 22.34375 9.578125 C 21.949219 9.355469 21.292969 9.035156 21.007812 8.933594 C 20.527344 8.757812 20.214844 8.65625 20.160156 8.65625 C 20.132812 8.65625 20.019531 8.628906 19.917969 8.59375 C 19.648438 8.5 19.570312 8.507812 19.570312 8.605469 Z M 19.570312 8.605469 "/>
<path style=" stroke:none;fill-rule:nonzero;fill:rgb(0%,0%,0%);fill-opacity:1;" d="M 9.410156 8.929688 C 9.410156 9.019531 9.386719 9.0625 9.289062 9.140625 C 9.175781 9.234375 9.171875 9.238281 9.210938 9.335938 C 9.234375 9.402344 9.3125 9.472656 9.40625 9.527344 C 9.808594 9.761719 10.164062 10.015625 10.152344 10.058594 C 10.140625 10.113281 10.101562 10.113281 9.910156 10.074219 C 9.78125 10.050781 9.765625 10.109375 9.867188 10.226562 C 9.902344 10.269531 9.933594 10.3125 9.933594 10.320312 C 9.933594 10.332031 10.0625 10.34375 10.226562 10.34375 C 10.402344 10.34375 10.53125 10.355469 10.554688 10.378906 C 10.609375 10.433594 10.5625 10.714844 10.5 10.714844 C 10.472656 10.714844 10.453125 10.707031 10.453125 10.691406 C 10.453125 10.675781 10.433594 10.640625 10.40625 10.605469 C 10.363281 10.546875 10.351562 10.546875 10.242188 10.597656 C 10.179688 10.628906 10.128906 10.664062 10.128906 10.675781 C 10.128906 10.726562 10.476562 10.863281 10.601562 10.863281 C 10.714844 10.863281 10.734375 10.871094 10.742188 10.941406 C 10.753906 11.007812 10.746094 11.015625 10.691406 10.996094 C 10.660156 10.984375 10.585938 10.964844 10.527344 10.953125 C 10.417969 10.933594 10.417969 10.9375 10.429688 11.046875 L 10.4375 11.15625 L 11.046875 11.15625 L 11.238281 11.371094 C 11.34375 11.488281 11.433594 11.597656 11.433594 11.621094 C 11.433594 11.640625 11.453125 11.664062 11.476562 11.671875 C 11.496094 11.683594 11.453125 11.679688 11.378906 11.671875 C 11.03125 11.632812 11.367188 11.882812 11.730469 11.941406 C 11.929688 11.972656 12.121094 12.03125 12.121094 12.054688 C 12.121094 12.070312 12.085938 12.089844 12.039062 12.101562 C 11.945312 12.125 11.9375 12.152344 12.003906 12.234375 C 12.039062 12.289062 12.0625 12.289062 12.128906 12.261719 C 12.191406 12.230469 12.246094 12.25 12.46875 12.351562 C 12.613281 12.417969 12.808594 12.53125 12.898438 12.605469 C 13.019531 12.699219 13.109375 12.738281 13.222656 12.753906 C 13.632812 12.808594 13.609375 12.796875 13.828125 13.046875 C 13.964844 13.195312 14.101562 13.398438 14.207031 13.609375 C 14.648438 14.476562 14.785156 14.65625 14.945312 14.59375 C 15.027344 14.5625 15.007812 14.46875 14.863281 14.261719 C 14.527344 13.761719 14.273438 13.101562 14.417969 13.101562 C 14.445312 13.101562 14.484375 13.074219 14.503906 13.046875 C 14.527344 12.996094 14.546875 13.003906 14.675781 13.109375 C 14.785156 13.195312 14.890625 13.246094 15.085938 13.296875 C 15.234375 13.332031 15.464844 13.414062 15.605469 13.476562 C 15.8125 13.574219 15.890625 13.589844 16.085938 13.589844 C 16.40625 13.589844 16.78125 13.707031 16.980469 13.871094 C 17.0625 13.945312 17.167969 14.03125 17.214844 14.070312 C 17.277344 14.121094 17.382812 14.152344 17.570312 14.179688 C 17.71875 14.199219 17.9375 14.25 18.050781 14.292969 C 18.28125 14.382812 18.410156 14.394531 18.445312 14.335938 C 18.460938 14.316406 18.441406 14.28125 18.40625 14.253906 C 18.355469 14.214844 18.351562 14.207031 18.394531 14.179688 C 18.5 14.109375 18.898438 14.246094 19.128906 14.433594 C 19.238281 14.519531 19.503906 14.707031 19.726562 14.847656 L 20.128906 15.101562 L 20.335938 15.011719 C 20.515625 14.9375 20.570312 14.925781 20.738281 14.945312 C 20.839844 14.960938 21.007812 15.011719 21.105469 15.0625 C 21.285156 15.152344 21.589844 15.222656 22.113281 15.289062 C 22.292969 15.316406 22.453125 15.359375 22.574219 15.421875 C 22.675781 15.46875 22.890625 15.566406 23.050781 15.628906 C 23.335938 15.746094 23.347656 15.746094 23.8125 15.746094 C 24.351562 15.746094 24.496094 15.789062 24.660156 15.996094 C 24.765625 16.125 24.84375 16.132812 24.972656 16.027344 C 25.105469 15.921875 25.074219 15.8125 24.832031 15.476562 C 24.660156 15.234375 24.617188 15.199219 24.40625 15.09375 C 24.210938 15.003906 24.148438 14.945312 24.027344 14.785156 C 23.832031 14.523438 23.839844 14.449219 24.078125 14.359375 C 24.324219 14.265625 24.328125 14.207031 24.089844 13.996094 C 23.796875 13.746094 23.722656 13.699219 23.472656 13.640625 L 23.238281 13.589844 L 23.113281 13.324219 C 23 13.089844 22.933594 13.011719 22.585938 12.675781 L 22.1875 12.289062 L 21.933594 12.269531 C 21.792969 12.257812 21.554688 12.21875 21.394531 12.183594 L 21.117188 12.117188 L 20.945312 11.898438 C 20.777344 11.679688 20.769531 11.675781 20.179688 11.394531 C 19.671875 11.152344 19.585938 11.101562 19.578125 11.035156 C 19.570312 10.976562 19.589844 10.949219 19.644531 10.921875 C 19.699219 10.894531 19.734375 10.847656 19.746094 10.761719 C 19.769531 10.65625 19.757812 10.632812 19.664062 10.53125 C 19.59375 10.457031 19.480469 10.398438 19.3125 10.339844 C 19.175781 10.292969 18.976562 10.199219 18.871094 10.132812 C 18.699219 10.015625 18.648438 10 18.402344 9.976562 C 18.199219 9.960938 18.03125 9.921875 17.785156 9.832031 C 17.601562 9.757812 17.277344 9.65625 17.0625 9.601562 C 16.726562 9.515625 16.644531 9.503906 16.410156 9.523438 C 16.15625 9.542969 16.117188 9.535156 15.632812 9.390625 C 15.183594 9.253906 15.117188 9.242188 15.027344 9.277344 C 14.933594 9.316406 14.929688 9.324219 14.929688 9.535156 L 14.929688 9.753906 L 14.75 9.84375 C 14.648438 9.894531 14.558594 9.933594 14.542969 9.933594 C 14.527344 9.933594 14.433594 9.867188 14.34375 9.789062 C 14.183594 9.652344 14.160156 9.644531 13.90625 9.621094 C 13.582031 9.59375 13.265625 9.488281 12.941406 9.296875 C 12.730469 9.175781 12.65625 9.152344 12.445312 9.132812 C 12.226562 9.113281 12.027344 9.136719 11.929688 9.203125 C 11.90625 9.214844 12.136719 9.503906 12.171875 9.503906 C 12.191406 9.503906 12.238281 9.484375 12.285156 9.457031 C 12.375 9.40625 12.53125 9.394531 12.558594 9.4375 C 12.570312 9.453125 12.550781 9.476562 12.511719 9.484375 C 12.476562 9.496094 12.449219 9.53125 12.449219 9.566406 C 12.449219 9.613281 12.417969 9.632812 12.347656 9.652344 C 12.175781 9.683594 12.164062 9.675781 12.003906 9.476562 L 11.851562 9.277344 L 11.636719 9.277344 C 11.445312 9.277344 11.398438 9.265625 11.210938 9.148438 C 10.953125 8.996094 10.8125 8.960938 10.195312 8.902344 C 9.933594 8.875 9.652344 8.847656 9.566406 8.835938 L 9.410156 8.8125 Z M 9.410156 8.929688 "/>
<path style=" stroke:none;fill-rule:nonzero;fill:rgb(0%,0%,0%);fill-opacity:1;" d="M 31.625 12.542969 L 31.625 12.644531 L 31.847656 12.648438 C 32.167969 12.660156 32.285156 12.648438 32.429688 12.597656 L 32.558594 12.550781 L 32.457031 12.511719 C 32.40625 12.488281 32.195312 12.460938 31.996094 12.453125 L 31.625 12.441406 Z M 31.625 12.542969 "/>
<path style=" stroke:none;fill-rule:nonzero;fill:rgb(0%,0%,0%);fill-opacity:1;" d="M 34.742188 16.199219 C 34.652344 16.234375 34.4375 16.34375 34.269531 16.445312 C 34.011719 16.59375 33.882812 16.703125 33.480469 17.121094 C 33.039062 17.570312 32.917969 17.742188 33.035156 17.742188 C 33.058594 17.742188 33.175781 17.835938 33.304688 17.949219 C 33.6875 18.289062 33.976562 18.460938 34.570312 18.679688 C 34.945312 18.820312 35.191406 18.890625 35.382812 18.917969 C 35.535156 18.9375 35.761719 18.976562 35.882812 19.003906 C 36.132812 19.058594 36.136719 19.058594 36.421875 18.820312 C 36.519531 18.738281 36.558594 18.679688 36.558594 18.621094 C 36.558594 18.570312 36.589844 18.5 36.621094 18.457031 L 36.683594 18.378906 L 36.71875 18.464844 C 36.738281 18.519531 36.789062 18.5625 36.832031 18.578125 C 36.984375 18.613281 37.210938 18.4375 37.210938 18.28125 C 37.210938 18.242188 37.105469 18.050781 36.972656 17.855469 C 36.761719 17.539062 36.726562 17.460938 36.691406 17.261719 C 36.652344 17.042969 36.648438 17.027344 36.46875 16.867188 C 36.152344 16.59375 35.71875 16.269531 35.589844 16.214844 C 35.394531 16.132812 34.945312 16.125 34.742188 16.199219 Z M 35.414062 17.15625 C 35.542969 17.257812 35.574219 17.328125 35.519531 17.398438 C 35.496094 17.425781 34.957031 17.578125 34.871094 17.578125 C 34.8125 17.578125 34.753906 17.453125 34.742188 17.324219 C 34.734375 17.234375 34.746094 17.21875 34.792969 17.234375 C 34.828125 17.242188 34.894531 17.210938 34.976562 17.136719 C 35.132812 17 35.222656 17.003906 35.414062 17.15625 Z M 35.414062 17.15625 "/>
<path style=" stroke:none;fill-rule:nonzero;fill:rgb(0%,0%,0%);fill-opacity:1;" d="M 24.367188 17.660156 C 24.296875 17.683594 24.289062 17.742188 24.351562 17.742188 C 24.371094 17.742188 24.449219 17.78125 24.523438 17.835938 C 24.640625 17.921875 24.675781 17.929688 25.042969 17.945312 C 25.257812 17.960938 25.5 17.976562 25.582031 17.984375 C 25.664062 17.996094 25.75 17.988281 25.777344 17.972656 C 25.867188 17.910156 25.707031 17.804688 25.429688 17.734375 C 25.183594 17.671875 24.488281 17.625 24.367188 17.660156 Z M 24.367188 17.660156 "/>
<path style=" stroke:none;fill-rule:nonzero;fill:rgb(0%,0%,0%);fill-opacity:1;" d="M 38.324219 21.773438 C 38.324219 21.851562 38.398438 21.878906 38.632812 21.898438 C 39.476562 21.964844 39.605469 21.988281 39.777344 22.105469 C 39.898438 22.1875 39.976562 22.214844 40.070312 22.214844 C 40.378906 22.214844 40.417969 22.125 40.15625 22.015625 C 39.945312 21.925781 39.785156 21.894531 39.171875 21.839844 C 38.875 21.816406 38.582031 21.777344 38.519531 21.757812 C 38.367188 21.714844 38.324219 21.714844 38.324219 21.773438 Z M 38.324219 21.773438 "/>
<path style=" stroke:none;fill-rule:nonzero;fill:rgb(0%,0%,0%);fill-opacity:1;" d="M 7.613281 33.230469 C 7.613281 33.265625 7.589844 33.328125 7.5625 33.371094 C 7.480469 33.492188 7.441406 33.648438 7.347656 34.222656 C 7.328125 34.332031 7.300781 34.617188 7.285156 34.859375 C 7.273438 35.101562 7.242188 35.382812 7.21875 35.480469 C 7.132812 35.886719 7.152344 36.082031 7.285156 36.128906 C 7.433594 36.179688 7.449219 36.132812 7.449219 35.644531 C 7.449219 35.402344 7.46875 35.003906 7.496094 34.761719 C 7.519531 34.519531 7.558594 34.148438 7.578125 33.9375 C 7.597656 33.71875 7.636719 33.488281 7.664062 33.417969 C 7.722656 33.25 7.722656 33.207031 7.660156 33.179688 C 7.628906 33.167969 7.613281 33.183594 7.613281 33.230469 Z M 7.613281 33.230469 "/>
<path style=" stroke:none;fill-rule:nonzero;fill:rgb(0%,0%,0%);fill-opacity:1;" d="M 6.125 36.035156 C 6.050781 36.074219 5.933594 36.164062 5.859375 36.242188 C 5.6875 36.414062 5.359375 36.976562 5.320312 37.15625 C 5.222656 37.625 5.1875 38.910156 5.25 40.023438 C 5.273438 40.453125 5.285156 40.546875 5.347656 40.660156 C 5.441406 40.824219 5.585938 41.25 5.585938 41.351562 C 5.585938 41.394531 5.625 41.523438 5.671875 41.632812 C 5.722656 41.742188 5.78125 41.917969 5.816406 42.019531 C 5.886719 42.238281 6.027344 42.527344 6.109375 42.621094 C 6.140625 42.65625 6.230469 42.800781 6.300781 42.945312 C 6.433594 43.207031 6.671875 43.480469 6.925781 43.660156 C 7.136719 43.816406 7.773438 44.238281 7.789062 44.238281 C 7.796875 44.238281 7.90625 44.28125 8.023438 44.339844 C 8.144531 44.390625 8.304688 44.449219 8.375 44.460938 C 8.453125 44.476562 8.601562 44.527344 8.714844 44.578125 C 8.824219 44.621094 8.960938 44.660156 9.015625 44.660156 C 9.175781 44.660156 9.269531 44.730469 9.703125 45.167969 C 10.117188 45.589844 10.324219 45.742188 10.992188 46.144531 C 11.351562 46.359375 11.351562 46.359375 11.363281 46.277344 C 11.371094 46.214844 11.390625 46.195312 11.425781 46.210938 C 11.453125 46.21875 11.480469 46.230469 11.488281 46.230469 C 11.492188 46.230469 11.5 46.273438 11.5 46.328125 C 11.5 46.421875 11.503906 46.425781 11.664062 46.425781 C 11.820312 46.425781 11.828125 46.421875 11.832031 46.335938 C 11.835938 46.25 11.835938 46.25 11.851562 46.328125 C 11.871094 46.4375 11.925781 46.492188 11.925781 46.398438 C 11.925781 46.335938 11.941406 46.328125 12.058594 46.328125 C 12.210938 46.328125 12.316406 46.375 12.316406 46.4375 C 12.316406 46.496094 12.585938 46.570312 12.710938 46.546875 C 12.808594 46.523438 12.839844 46.542969 12.964844 46.703125 C 13.074219 46.84375 13.425781 47.03125 13.886719 47.195312 C 14.65625 47.464844 14.871094 47.535156 14.9375 47.535156 C 14.96875 47.535156 15.113281 47.589844 15.25 47.652344 C 15.589844 47.8125 15.785156 47.875 16.125 47.929688 C 16.230469 47.949219 16.371094 47.972656 16.433594 47.980469 C 16.496094 47.992188 16.605469 48.027344 16.683594 48.0625 C 16.753906 48.09375 16.835938 48.125 16.863281 48.125 C 16.886719 48.125 16.9375 48.144531 16.972656 48.167969 C 17.140625 48.285156 17.441406 48.347656 18.050781 48.390625 C 19.21875 48.476562 19.5625 48.433594 20.03125 48.136719 C 20.160156 48.054688 20.257812 48.046875 21.269531 48 C 21.933594 47.96875 21.96875 47.957031 22.511719 47.683594 C 22.832031 47.519531 22.976562 47.472656 23.136719 47.472656 C 23.253906 47.472656 23.832031 47.296875 23.898438 47.242188 C 23.925781 47.222656 25.238281 47.207031 27.707031 47.203125 L 31.480469 47.195312 L 31.5 47.09375 L 31.519531 46.996094 L 31.523438 47.089844 C 31.527344 47.171875 31.539062 47.175781 31.621094 47.15625 C 31.667969 47.140625 32.054688 47.132812 32.476562 47.132812 L 33.242188 47.128906 L 33.253906 47.039062 C 33.261719 46.96875 33.296875 46.941406 33.480469 46.867188 C 33.601562 46.820312 33.839844 46.703125 34.011719 46.605469 C 34.179688 46.511719 34.402344 46.414062 34.5 46.394531 C 34.597656 46.371094 34.808594 46.300781 34.96875 46.242188 C 35.359375 46.097656 35.699219 45.796875 35.9375 45.382812 C 36.027344 45.222656 36.101562 45.074219 36.101562 45.046875 C 36.101562 44.976562 36.03125 44.921875 35.949219 44.921875 C 35.855469 44.921875 35.796875 45.007812 35.625 45.394531 C 35.472656 45.730469 35.382812 45.816406 35.238281 45.746094 C 35.179688 45.71875 35.152344 45.683594 35.152344 45.628906 C 35.152344 45.574219 35.097656 45.503906 34.953125 45.382812 C 34.726562 45.199219 34.699219 45.195312 34.433594 45.265625 C 34.335938 45.292969 34.136719 45.316406 33.984375 45.316406 C 33.734375 45.316406 33.695312 45.324219 33.449219 45.449219 C 33.183594 45.582031 33.175781 45.582031 32.929688 45.5625 C 32.789062 45.550781 32.558594 45.558594 32.402344 45.578125 C 32.140625 45.613281 32.109375 45.609375 31.847656 45.53125 C 31.652344 45.46875 31.5 45.445312 31.3125 45.445312 C 31.171875 45.445312 30.996094 45.429688 30.925781 45.410156 C 30.742188 45.359375 30.699219 45.421875 30.722656 45.707031 C 30.734375 45.824219 30.75 45.953125 30.761719 45.992188 C 30.777344 46.039062 30.761719 46.070312 30.714844 46.097656 C 30.65625 46.128906 30.617188 46.113281 30.425781 45.96875 L 30.207031 45.800781 L 30.003906 45.824219 C 29.808594 45.84375 29.785156 45.835938 29.632812 45.738281 C 29.472656 45.636719 29.464844 45.636719 29.402344 45.691406 C 29.367188 45.722656 29.339844 45.785156 29.339844 45.828125 C 29.339844 45.929688 29.261719 45.925781 29.121094 45.816406 C 29.0625 45.773438 28.921875 45.683594 28.8125 45.621094 C 28.65625 45.535156 28.601562 45.515625 28.550781 45.542969 C 28.445312 45.601562 28.476562 45.699219 28.621094 45.773438 C 28.6875 45.808594 28.765625 45.867188 28.785156 45.902344 C 28.816406 45.960938 28.808594 45.96875 28.691406 45.96875 C 28.621094 45.96875 28.484375 45.933594 28.382812 45.890625 C 28.125 45.773438 27.757812 45.730469 27.421875 45.777344 C 27.269531 45.796875 27.109375 45.800781 27.066406 45.792969 C 26.96875 45.765625 26.960938 45.835938 27.046875 46.035156 C 27.085938 46.113281 27.105469 46.195312 27.09375 46.214844 C 27.074219 46.273438 26.949219 46.296875 26.898438 46.257812 C 26.875 46.234375 26.765625 46.1875 26.648438 46.148438 C 26.449219 46.074219 26.4375 46.054688 26.480469 45.917969 C 26.492188 45.875 26.464844 45.808594 26.382812 45.699219 C 26.246094 45.53125 26.183594 45.492188 26.113281 45.550781 C 26.054688 45.597656 26.082031 45.707031 26.195312 45.902344 C 26.246094 45.984375 26.289062 46.117188 26.300781 46.203125 C 26.316406 46.351562 26.3125 46.359375 26.230469 46.375 C 26.121094 46.402344 25.609375 46.335938 25.558594 46.289062 C 25.492188 46.234375 25.507812 46.164062 25.601562 46.039062 L 25.6875 45.929688 L 25.480469 45.71875 C 25.253906 45.492188 24.898438 45.25 24.671875 45.167969 C 24.484375 45.101562 24.460938 45.105469 24.488281 45.183594 C 24.5 45.222656 24.492188 45.277344 24.46875 45.300781 C 24.4375 45.339844 24.449219 45.382812 24.550781 45.539062 C 24.613281 45.648438 24.667969 45.75 24.667969 45.769531 C 24.667969 45.832031 24.523438 45.808594 24.398438 45.722656 C 24.332031 45.675781 24.257812 45.640625 24.234375 45.640625 C 24.210938 45.640625 24.144531 45.722656 24.082031 45.824219 C 23.992188 45.976562 23.960938 46.003906 23.898438 45.988281 C 23.671875 45.929688 23.351562 45.90625 23.195312 45.9375 C 22.992188 45.976562 22.96875 45.988281 22.96875 46.066406 C 22.96875 46.136719 23.070312 46.328125 23.113281 46.328125 C 23.128906 46.328125 23.121094 46.351562 23.097656 46.375 C 23.035156 46.453125 22.917969 46.4375 22.671875 46.3125 C 22.550781 46.25 22.433594 46.195312 22.414062 46.195312 C 22.398438 46.195312 22.191406 46.316406 21.953125 46.457031 C 21.714844 46.601562 21.511719 46.71875 21.496094 46.71875 C 21.480469 46.71875 21.4375 46.707031 21.394531 46.691406 C 21.332031 46.667969 21.304688 46.613281 21.257812 46.421875 C 21.195312 46.191406 21.128906 46.066406 21.066406 46.066406 C 21.046875 46.066406 20.957031 46.132812 20.863281 46.214844 C 20.714844 46.339844 20.683594 46.386719 20.617188 46.609375 L 20.539062 46.855469 L 20.320312 46.964844 C 20.039062 47.109375 19.671875 47.160156 19.316406 47.113281 L 19.0625 47.078125 L 18.851562 46.855469 L 18.640625 46.625 L 18.410156 46.667969 C 18.285156 46.695312 18.058594 46.722656 17.902344 46.734375 C 17.660156 46.753906 17.601562 46.773438 17.402344 46.890625 C 17.183594 47.023438 17.183594 47.023438 17.066406 46.972656 C 16.960938 46.917969 16.957031 46.914062 16.957031 46.710938 C 16.957031 46.527344 16.945312 46.496094 16.863281 46.414062 C 16.808594 46.363281 16.738281 46.328125 16.683594 46.328125 C 16.585938 46.328125 16.585938 46.328125 16.605469 46.488281 C 16.617188 46.574219 16.644531 46.679688 16.667969 46.714844 C 16.699219 46.769531 16.703125 46.792969 16.671875 46.820312 C 16.601562 46.894531 16.539062 46.820312 16.335938 46.429688 C 16.222656 46.210938 16.113281 46.015625 16.089844 46 C 16.0625 45.976562 16.003906 45.976562 15.90625 45.996094 C 15.828125 46.015625 15.679688 46.035156 15.578125 46.050781 C 15.40625 46.070312 15.390625 46.078125 15.371094 46.167969 C 15.355469 46.246094 15.332031 46.261719 15.257812 46.261719 C 15.175781 46.261719 15.160156 46.246094 15.109375 46.089844 C 15.03125 45.851562 14.996094 45.816406 14.871094 45.882812 C 14.804688 45.917969 14.597656 45.945312 14.246094 45.972656 L 13.722656 46.007812 L 13.46875 45.867188 C 13.328125 45.792969 13.089844 45.636719 12.9375 45.527344 C 12.785156 45.417969 12.429688 45.179688 12.152344 45.003906 C 11.589844 44.648438 11.347656 44.46875 10.960938 44.121094 C 10.664062 43.855469 10.328125 43.605469 10.0625 43.457031 C 9.886719 43.359375 9.875 43.347656 9.804688 43.121094 C 9.710938 42.820312 9.507812 42.539062 9.394531 42.539062 C 9.328125 42.539062 9.332031 42.589844 9.414062 42.761719 C 9.464844 42.867188 9.476562 42.910156 9.445312 42.941406 C 9.375 43.011719 9.296875 42.914062 9.175781 42.601562 C 9.113281 42.429688 9.003906 42.199219 8.9375 42.082031 L 8.8125 41.875 L 8.855469 41.605469 C 8.894531 41.34375 8.894531 41.328125 8.8125 41.097656 C 8.761719 40.964844 8.707031 40.761719 8.6875 40.644531 C 8.65625 40.476562 8.605469 40.371094 8.46875 40.160156 L 8.289062 39.890625 L 8.347656 39.628906 L 8.40625 39.371094 L 8.238281 39.175781 L 8.066406 38.980469 L 8.089844 38.71875 C 8.109375 38.492188 8.097656 38.429688 8.035156 38.246094 C 7.992188 38.128906 7.9375 38.027344 7.914062 38.027344 C 7.890625 38.027344 7.820312 38.050781 7.757812 38.074219 L 7.644531 38.125 L 7.644531 38.609375 C 7.644531 38.871094 7.667969 39.246094 7.695312 39.433594 C 7.753906 39.855469 7.757812 40.1875 7.707031 40.515625 C 7.667969 40.753906 7.671875 40.773438 7.757812 41.003906 C 7.847656 41.234375 7.851562 41.253906 7.828125 41.667969 C 7.8125 42.050781 7.800781 42.101562 7.738281 42.152344 C 7.605469 42.265625 7.53125 42.230469 7.347656 41.96875 C 7.21875 41.78125 7.117188 41.683594 6.914062 41.542969 L 6.648438 41.363281 L 6.117188 41.363281 L 5.953125 41.105469 C 5.761719 40.808594 5.660156 40.5 5.539062 39.839844 C 5.464844 39.4375 5.453125 39.273438 5.445312 38.628906 C 5.441406 37.714844 5.488281 37.378906 5.695312 36.96875 C 5.847656 36.65625 5.925781 36.550781 6.199219 36.289062 C 6.316406 36.175781 6.421875 36.0625 6.441406 36.03125 C 6.464844 35.976562 6.457031 35.972656 6.363281 35.972656 C 6.304688 35.972656 6.199219 36 6.125 36.035156 Z M 24.726562 46.46875 C 24.71875 46.515625 24.625 46.601562 24.429688 46.734375 C 24.128906 46.9375 24.050781 46.953125 23.914062 46.816406 C 23.820312 46.722656 23.832031 46.65625 23.941406 46.65625 C 23.992188 46.652344 24.136719 46.59375 24.269531 46.527344 C 24.40625 46.457031 24.566406 46.402344 24.625 46.398438 C 24.722656 46.394531 24.734375 46.402344 24.726562 46.46875 Z M 24.726562 46.46875 "/>
<path style=" stroke:none;fill-rule:nonzero;fill:rgb(0%,0%,0%);fill-opacity:1;" d="M 33.792969 40.078125 C 33.535156 40.363281 33.324219 40.632812 33.324219 40.675781 C 33.324219 40.691406 33.402344 40.726562 33.496094 40.761719 C 33.589844 40.789062 33.753906 40.859375 33.855469 40.90625 C 33.957031 40.960938 34.058594 41.003906 34.082031 41.003906 C 34.125 41.003906 34.234375 40.695312 34.3125 40.355469 C 34.347656 40.1875 34.34375 40.171875 34.253906 40.003906 C 34.121094 39.761719 34.074219 39.765625 33.792969 40.078125 Z M 33.792969 40.078125 "/>
<path style=" stroke:none;fill-rule:nonzero;fill:rgb(0%,0%,0%);fill-opacity:1;" d="M 12.074219 40.101562 C 12.039062 40.160156 12.023438 40.253906 12.023438 40.421875 C 12.027344 40.644531 12.03125 40.675781 12.167969 40.886719 L 12.308594 41.117188 L 12.457031 41.117188 C 12.554688 41.117188 12.628906 41.136719 12.664062 41.171875 C 12.710938 41.222656 12.710938 41.234375 12.609375 41.359375 C 12.488281 41.511719 12.496094 41.550781 12.640625 41.480469 C 12.691406 41.449219 12.761719 41.425781 12.789062 41.425781 C 12.828125 41.425781 12.839844 41.378906 12.839844 41.152344 C 12.839844 41 12.855469 40.863281 12.871094 40.855469 C 12.949219 40.804688 12.855469 40.765625 12.707031 40.785156 L 12.546875 40.808594 L 12.457031 40.621094 C 12.398438 40.488281 12.371094 40.371094 12.367188 40.234375 L 12.359375 40.039062 L 12.246094 40.027344 C 12.152344 40.023438 12.121094 40.035156 12.074219 40.101562 Z M 12.074219 40.101562 "/>
<path style=" stroke:none;fill-rule:nonzero;fill:rgb(0%,0%,0%);fill-opacity:1;" d="M 14.488281 40.277344 C 14.226562 40.503906 14.152344 40.621094 14.214844 40.695312 C 14.246094 40.730469 14.3125 40.6875 14.570312 40.480469 C 14.933594 40.1875 14.945312 40.171875 14.886719 40.128906 C 14.777344 40.042969 14.734375 40.058594 14.488281 40.277344 Z M 14.488281 40.277344 "/>
<path style=" stroke:none;fill-rule:nonzero;fill:rgb(0%,0%,0%);fill-opacity:1;" d="M 11.3125 40.550781 C 11.253906 40.625 11.171875 40.898438 11.171875 41.042969 C 11.171875 41.085938 11.210938 41.210938 11.257812 41.328125 C 11.332031 41.511719 11.371094 41.5625 11.535156 41.683594 C 11.671875 41.78125 11.742188 41.816406 11.769531 41.792969 C 11.792969 41.777344 11.839844 41.753906 11.875 41.746094 C 11.933594 41.738281 11.925781 41.722656 11.808594 41.589844 C 11.652344 41.417969 11.46875 40.972656 11.46875 40.765625 C 11.46875 40.605469 11.4375 40.480469 11.40625 40.480469 C 11.390625 40.480469 11.351562 40.511719 11.3125 40.550781 Z M 11.3125 40.550781 "/>
</g>
</svg>
