<?xml version="1.0" encoding="UTF-8"?>
<svg xmlns="http://www.w3.org/2000/svg" xmlns:xlink="http://www.w3.org/1999/xlink" width="50pt" height="64pt" viewBox="0 0 50 64" version="1.1">
<g id="surface1">
<path style=" stroke:none;fill-rule:nonzero;fill:rgb(0%,0%,0%);fill-opacity:1;" d="M 41.703125 0.601562 C 41.628906 0.609375 41.398438 0.660156 41.296875 0.6875 C 40.878906 0.808594 40.753906 0.914062 40.457031 1.398438 C 40.371094 1.539062 40.273438 1.683594 40.226562 1.746094 C 40.183594 1.800781 40.125 1.917969 40.050781 2.105469 C 39.976562 2.292969 39.957031 2.328125 39.914062 2.394531 C 39.847656 2.492188 39.785156 2.542969 39.714844 2.5625 C 39.632812 2.582031 39.53125 2.773438 39.554688 2.863281 C 39.5625 2.894531 39.550781 2.921875 39.519531 2.933594 C 39.511719 2.9375 39.5 2.945312 39.492188 2.953125 C 39.480469 2.964844 39.484375 2.96875 39.503906 2.984375 L 39.527344 3.003906 L 39.484375 3.023438 C 39.433594 3.042969 39.417969 3.058594 39.421875 3.082031 C 39.425781 3.089844 39.417969 3.109375 39.402344 3.128906 C 39.375 3.175781 39.253906 3.289062 39.167969 3.351562 C 39.089844 3.40625 39.054688 3.441406 39.015625 3.5 C 38.988281 3.539062 38.960938 3.597656 38.957031 3.613281 C 38.957031 3.636719 39.050781 3.613281 39.253906 3.535156 C 39.394531 3.480469 39.4375 3.507812 39.398438 3.640625 C 39.367188 3.734375 39.292969 3.824219 39.195312 3.871094 C 39.144531 3.898438 39.140625 3.898438 39.046875 3.894531 L 38.953125 3.894531 L 38.929688 3.917969 C 38.902344 3.945312 38.480469 4.769531 38.433594 4.882812 C 38.417969 4.914062 38.410156 4.953125 38.410156 4.972656 C 38.410156 5 38.40625 5.007812 38.398438 5.007812 C 38.371094 5.007812 38.292969 5.128906 38.226562 5.277344 C 38.171875 5.390625 38.15625 5.449219 38.15625 5.496094 C 38.15625 5.546875 38.152344 5.554688 38.117188 5.5625 C 38.082031 5.566406 38.046875 5.601562 37.984375 5.6875 C 37.957031 5.730469 37.882812 5.824219 37.820312 5.902344 C 37.617188 6.152344 37.585938 6.207031 37.578125 6.308594 C 37.574219 6.378906 37.585938 6.425781 37.640625 6.53125 C 37.660156 6.574219 37.679688 6.617188 37.6875 6.632812 L 37.695312 6.660156 L 37.625 6.65625 C 37.472656 6.648438 37.421875 6.585938 37.421875 6.410156 C 37.421875 6.332031 37.421875 6.332031 37.355469 6.441406 C 37.300781 6.527344 37.230469 6.597656 37.171875 6.632812 C 37.148438 6.644531 37.085938 6.671875 37.035156 6.6875 C 36.730469 6.789062 36.566406 6.929688 36.5 7.132812 C 36.476562 7.210938 36.449219 7.339844 36.421875 7.515625 C 36.355469 7.945312 36.324219 8.097656 36.285156 8.1875 C 36.25 8.257812 36.070312 8.515625 35.949219 8.660156 C 35.925781 8.691406 35.90625 8.71875 35.90625 8.730469 C 35.90625 8.753906 35.925781 8.796875 35.960938 8.84375 C 35.996094 8.894531 36.023438 8.953125 36.03125 8.996094 C 36.039062 9.0625 35.980469 9.132812 35.921875 9.121094 C 35.890625 9.117188 35.84375 9.066406 35.816406 9.015625 C 35.796875 8.980469 35.792969 8.964844 35.792969 8.894531 C 35.789062 8.847656 35.785156 8.816406 35.78125 8.816406 C 35.773438 8.816406 35.527344 8.945312 35.40625 9.011719 C 35.203125 9.128906 35.136719 9.195312 34.980469 9.472656 C 34.925781 9.570312 34.847656 9.679688 34.800781 9.734375 C 34.691406 9.855469 34.519531 10.191406 34.5 10.316406 C 34.492188 10.378906 34.386719 10.535156 34.21875 10.730469 C 34.160156 10.800781 34.082031 10.902344 34.039062 10.957031 C 33.914062 11.132812 33.746094 11.394531 33.679688 11.53125 C 33.644531 11.597656 33.640625 11.601562 33.578125 11.640625 C 33.5 11.691406 33.410156 11.734375 33.347656 11.75 C 33.304688 11.761719 33.300781 11.765625 33.296875 11.78125 C 33.292969 11.824219 33.410156 11.921875 33.460938 11.921875 C 33.5 11.921875 33.632812 11.816406 33.847656 11.625 C 33.910156 11.570312 33.96875 11.515625 33.976562 11.507812 C 33.992188 11.496094 34 11.496094 34.21875 11.542969 C 34.34375 11.574219 34.519531 11.609375 34.613281 11.628906 C 34.703125 11.648438 34.78125 11.667969 34.785156 11.667969 C 34.789062 11.671875 34.796875 11.691406 34.796875 11.714844 C 34.808594 11.773438 34.816406 11.789062 34.855469 11.828125 C 34.902344 11.878906 34.898438 11.890625 34.816406 11.945312 C 34.75 11.988281 34.699219 12.039062 34.699219 12.0625 C 34.699219 12.085938 34.683594 12.105469 34.671875 12.105469 C 34.636719 12.105469 34.625 12.15625 34.652344 12.175781 C 34.671875 12.195312 34.738281 12.226562 34.808594 12.253906 C 35.003906 12.320312 35.914062 12.730469 36.445312 12.988281 C 36.691406 13.109375 36.78125 13.160156 37.375 13.535156 C 37.628906 13.691406 37.9375 13.886719 38.070312 13.96875 C 38.757812 14.394531 38.992188 14.574219 39.601562 15.148438 C 39.886719 15.417969 40.171875 15.722656 40.515625 16.125 C 40.8125 16.472656 40.972656 16.632812 41.269531 16.882812 C 41.699219 17.25 41.957031 17.414062 42.257812 17.507812 C 42.410156 17.558594 42.492188 17.621094 42.6875 17.839844 C 42.847656 18.023438 42.875 18.078125 42.933594 18.335938 C 42.976562 18.515625 42.972656 18.5625 42.910156 18.808594 L 42.859375 19.007812 L 42.832031 19.007812 C 42.816406 19.007812 42.761719 19 42.707031 18.992188 C 42.527344 18.96875 42.359375 18.957031 42.195312 18.953125 C 42.03125 18.949219 42.027344 18.949219 42 18.964844 C 41.960938 18.992188 41.929688 19.058594 41.925781 19.128906 C 41.917969 19.222656 41.9375 19.238281 42.167969 19.339844 C 42.34375 19.417969 42.453125 19.523438 42.4375 19.597656 C 42.425781 19.652344 42.386719 19.660156 42.265625 19.632812 C 42.226562 19.625 42.195312 19.625 42.191406 19.628906 C 42.1875 19.632812 42.15625 19.710938 42.128906 19.808594 C 42.097656 19.90625 42.066406 20.003906 42.054688 20.03125 L 42.039062 20.082031 L 42.132812 20.273438 C 42.1875 20.375 42.238281 20.488281 42.25 20.519531 C 42.273438 20.59375 42.285156 20.683594 42.285156 20.792969 C 42.28125 20.960938 42.265625 21.015625 42.144531 21.195312 C 42.050781 21.332031 41.996094 21.402344 41.898438 21.492188 C 41.714844 21.664062 41.539062 21.769531 41.199219 21.917969 L 41.046875 21.984375 L 40.839844 21.902344 C 40.726562 21.859375 40.554688 21.789062 40.457031 21.746094 C 40.359375 21.703125 40.257812 21.660156 40.230469 21.652344 C 40.050781 21.59375 39.765625 21.546875 39.441406 21.515625 C 39.214844 21.496094 39.023438 21.460938 38.800781 21.40625 C 38.722656 21.386719 38.65625 21.371094 38.648438 21.371094 C 38.640625 21.371094 38.578125 21.425781 38.511719 21.492188 C 38.367188 21.628906 38.328125 21.664062 38.226562 21.730469 C 38.039062 21.855469 37.816406 21.941406 37.558594 21.988281 C 37.429688 22.011719 37.371094 22.03125 37.355469 22.066406 C 37.351562 22.082031 37.351562 22.089844 37.371094 22.113281 C 37.398438 22.152344 37.394531 22.167969 37.351562 22.21875 C 37.285156 22.300781 37.320312 22.316406 37.480469 22.277344 C 37.574219 22.253906 37.621094 22.253906 37.6875 22.285156 C 37.785156 22.332031 37.886719 22.398438 37.929688 22.441406 C 37.972656 22.492188 38 22.542969 38.085938 22.746094 L 38.144531 22.894531 L 38.363281 23 C 38.652344 23.140625 38.863281 23.21875 39.148438 23.289062 C 39.289062 23.324219 39.332031 23.328125 39.4375 23.339844 C 39.523438 23.34375 39.570312 23.355469 39.570312 23.371094 C 39.570312 23.378906 39.546875 23.398438 39.535156 23.398438 C 39.484375 23.398438 38.992188 23.691406 38.929688 23.757812 C 38.875 23.8125 38.882812 23.855469 38.945312 23.847656 C 39.050781 23.832031 39.207031 23.757812 39.4375 23.605469 C 39.511719 23.558594 39.601562 23.507812 39.636719 23.488281 C 39.691406 23.460938 39.699219 23.453125 39.707031 23.425781 C 39.710938 23.410156 39.722656 23.394531 39.730469 23.390625 C 39.746094 23.382812 39.839844 23.398438 40.042969 23.441406 C 40.335938 23.5 40.46875 23.542969 40.5 23.589844 C 40.535156 23.640625 40.515625 23.707031 40.457031 23.730469 C 40.421875 23.746094 40.308594 23.746094 40.117188 23.738281 C 39.847656 23.722656 39.628906 23.78125 39.238281 23.972656 C 38.988281 24.09375 38.808594 24.160156 38.550781 24.226562 C 38.316406 24.289062 38.246094 24.316406 38.238281 24.347656 C 38.238281 24.355469 38.246094 24.371094 38.257812 24.382812 C 38.28125 24.410156 38.28125 24.421875 38.238281 24.472656 C 38.203125 24.515625 38.195312 24.546875 38.222656 24.554688 C 38.246094 24.5625 38.296875 24.546875 38.390625 24.507812 C 38.441406 24.484375 38.484375 24.46875 38.488281 24.46875 C 38.496094 24.46875 38.589844 24.582031 38.609375 24.617188 C 38.628906 24.652344 38.628906 24.722656 38.601562 24.96875 L 38.578125 25.171875 L 38.386719 25.242188 C 37.570312 25.546875 37.292969 25.582031 36.847656 25.453125 C 36.492188 25.351562 36.238281 25.300781 35.875 25.261719 C 35.648438 25.238281 35.488281 25.210938 35.359375 25.175781 C 35.085938 25.101562 35.0625 25.097656 35.015625 25.132812 C 34.972656 25.167969 34.871094 25.273438 34.777344 25.386719 C 34.714844 25.460938 34.6875 25.488281 34.675781 25.488281 C 34.664062 25.488281 34.597656 25.496094 34.527344 25.5 C 34.304688 25.519531 34.207031 25.523438 34.054688 25.511719 C 33.8125 25.5 33.570312 25.464844 33.320312 25.414062 C 33.257812 25.398438 33.160156 25.378906 33.101562 25.367188 C 32.964844 25.335938 32.703125 25.292969 32.558594 25.277344 C 32.320312 25.25 32.253906 25.238281 32.164062 25.222656 C 31.941406 25.179688 31.738281 25.105469 31.371094 24.949219 C 30.898438 24.742188 30.648438 24.675781 29.980469 24.585938 C 29.457031 24.511719 29.242188 24.457031 29.050781 24.347656 C 28.945312 24.289062 28.875 24.230469 28.753906 24.109375 C 28.625 23.984375 28.535156 23.875 28.425781 23.710938 C 28.304688 23.535156 28.242188 23.464844 28.074219 23.339844 C 27.941406 23.242188 27.644531 22.96875 27.144531 22.480469 C 26.617188 21.964844 26.355469 21.722656 26.089844 21.507812 C 25.945312 21.390625 25.769531 21.261719 25.664062 21.191406 C 25.3125 20.972656 25.292969 20.957031 25.132812 20.71875 C 25.078125 20.636719 25.03125 20.5625 25.03125 20.558594 C 25.03125 20.550781 25.199219 20.425781 25.316406 20.347656 C 25.417969 20.277344 25.484375 20.214844 25.484375 20.191406 C 25.484375 20.167969 25.421875 20.078125 25.3125 19.949219 C 25.167969 19.773438 25.164062 19.765625 25.203125 19.558594 C 25.234375 19.398438 25.230469 19.390625 25.101562 19.304688 C 24.988281 19.230469 24.304688 18.832031 24.289062 18.832031 C 24.273438 18.832031 24.222656 18.789062 24.207031 18.765625 C 24.179688 18.710938 24.144531 18.421875 24.160156 18.367188 C 24.175781 18.316406 24.226562 18.273438 24.429688 18.136719 L 24.609375 18.011719 L 24.785156 18.054688 C 25.019531 18.109375 25.085938 18.121094 25.171875 18.125 C 25.25 18.125 25.277344 18.113281 25.292969 18.070312 C 25.300781 18.050781 25.296875 18.046875 25.269531 18.019531 C 25.128906 17.898438 24.25 17.566406 23.835938 17.480469 C 23.617188 17.4375 23.460938 17.390625 23.3125 17.324219 C 23.191406 17.269531 23.078125 17.230469 22.910156 17.179688 C 22.648438 17.105469 22.515625 17.054688 22.402344 16.980469 C 22.222656 16.867188 21.828125 16.554688 21.433594 16.222656 C 21.21875 16.039062 21.117188 15.972656 21.070312 15.976562 C 21.050781 15.980469 21.042969 15.984375 21.042969 16 C 21.039062 16.019531 21.125 16.105469 21.4375 16.390625 C 21.6875 16.621094 21.875 16.8125 21.882812 16.839844 C 21.890625 16.867188 21.875 16.882812 21.816406 16.914062 C 21.789062 16.929688 21.75 16.960938 21.726562 16.984375 C 21.703125 17.007812 21.675781 17.03125 21.667969 17.03125 C 21.652344 17.03125 21.621094 17.011719 21.539062 16.945312 C 21.335938 16.789062 21.113281 16.707031 20.613281 16.609375 C 20.308594 16.546875 20.128906 16.488281 19.929688 16.386719 C 19.796875 16.320312 19.703125 16.257812 19.542969 16.128906 C 19.351562 15.980469 19.285156 15.941406 19.257812 15.949219 C 19.222656 15.964844 19.253906 16.027344 19.378906 16.191406 C 19.476562 16.320312 19.515625 16.359375 19.546875 16.378906 C 19.585938 16.394531 19.78125 16.589844 19.789062 16.617188 C 19.796875 16.640625 19.792969 16.640625 19.757812 16.652344 C 19.714844 16.660156 19.671875 16.644531 19.558594 16.574219 C 19.363281 16.457031 19.148438 16.292969 19.125 16.246094 C 19.105469 16.210938 19.027344 16.136719 18.949219 16.085938 C 18.859375 16.027344 18.84375 16.035156 18.898438 16.113281 C 18.914062 16.136719 18.957031 16.195312 18.988281 16.238281 C 19.023438 16.28125 19.085938 16.359375 19.128906 16.410156 C 19.261719 16.582031 19.273438 16.609375 19.242188 16.667969 C 19.234375 16.6875 19.226562 16.714844 19.226562 16.738281 C 19.222656 16.777344 19.222656 16.777344 19.199219 16.78125 C 19.144531 16.785156 19.007812 16.6875 18.671875 16.414062 C 18.558594 16.324219 18.480469 16.269531 18.453125 16.269531 C 18.398438 16.269531 18.414062 16.292969 18.753906 16.675781 C 18.894531 16.835938 18.964844 16.925781 18.957031 16.933594 C 18.945312 16.945312 18.742188 16.792969 18.53125 16.613281 C 18.339844 16.449219 18.222656 16.363281 18.183594 16.363281 C 18.15625 16.363281 18.136719 16.378906 18.136719 16.402344 C 18.136719 16.433594 18.1875 16.492188 18.277344 16.5625 C 18.382812 16.644531 18.453125 16.710938 18.453125 16.726562 C 18.453125 16.742188 18.4375 16.75 18.402344 16.75 C 18.359375 16.75 18.253906 16.792969 18.089844 16.871094 L 17.925781 16.953125 L 17.746094 16.917969 C 17.46875 16.863281 17.402344 16.84375 17.238281 16.757812 C 17.109375 16.691406 16.957031 16.726562 16.972656 16.816406 C 16.984375 16.867188 17.0625 16.921875 17.277344 17.03125 C 17.515625 17.148438 17.574219 17.164062 18.066406 17.207031 C 18.714844 17.265625 18.96875 17.324219 19.355469 17.507812 C 19.542969 17.597656 19.632812 17.625 19.871094 17.664062 C 20.128906 17.707031 20.355469 17.777344 20.410156 17.835938 C 20.421875 17.847656 20.425781 17.867188 20.429688 17.898438 C 20.433594 17.929688 20.4375 17.949219 20.453125 17.972656 C 20.464844 17.988281 20.472656 18.003906 20.46875 18.007812 C 20.457031 18.019531 20.074219 17.96875 19.773438 17.914062 C 19.449219 17.859375 19.222656 17.808594 18.878906 17.714844 C 18.628906 17.648438 18.503906 17.617188 18.289062 17.566406 C 17.808594 17.460938 17.332031 17.3125 16.90625 17.128906 C 16.441406 16.933594 15.601562 16.519531 15.339844 16.359375 C 15.257812 16.308594 15.203125 16.261719 15.207031 16.242188 C 15.207031 16.234375 15.25 16.199219 15.296875 16.164062 C 15.386719 16.097656 15.425781 16.0625 15.425781 16.042969 C 15.425781 15.976562 15.019531 15.746094 14.59375 15.566406 C 14.382812 15.476562 14.308594 15.429688 14.132812 15.265625 C 13.933594 15.074219 13.882812 15.042969 13.699219 14.984375 C 13.503906 14.925781 13.398438 14.863281 13.023438 14.585938 C 12.753906 14.390625 12.578125 14.269531 12.414062 14.160156 C 12.164062 14 12.132812 13.980469 12.097656 13.941406 C 12.015625 13.855469 12.019531 13.800781 12.109375 13.671875 C 12.167969 13.597656 12.199219 13.535156 12.191406 13.515625 C 12.179688 13.488281 12.082031 13.390625 11.953125 13.277344 C 11.707031 13.0625 11.515625 12.84375 11.085938 12.28125 C 10.792969 11.894531 10.648438 11.71875 10.449219 11.507812 C 10.242188 11.285156 10.117188 11.191406 10.050781 11.207031 C 9.972656 11.21875 9.980469 11.277344 10.078125 11.402344 L 10.125 11.464844 L 10.09375 11.464844 C 10.03125 11.464844 9.898438 11.378906 9.738281 11.234375 C 9.5625 11.074219 9.503906 10.972656 9.445312 10.722656 C 9.425781 10.644531 9.421875 10.609375 9.417969 10.480469 C 9.417969 10.328125 9.417969 10.324219 9.398438 10.328125 C 9.339844 10.34375 9.195312 10.359375 9.167969 10.355469 C 9.117188 10.347656 9.054688 10.3125 8.9375 10.222656 C 8.757812 10.089844 8.707031 10.042969 8.683594 9.992188 C 8.617188 9.84375 8.488281 9.386719 8.457031 9.179688 C 8.433594 9.027344 8.445312 8.816406 8.488281 8.605469 C 8.515625 8.484375 8.542969 8.433594 8.695312 8.246094 C 8.898438 7.996094 9.015625 7.886719 9.28125 7.699219 C 9.464844 7.566406 9.699219 7.453125 9.964844 7.363281 C 10.109375 7.3125 10.265625 7.25 10.382812 7.195312 C 10.503906 7.136719 10.738281 7.007812 10.730469 6.996094 C 10.730469 6.996094 10.691406 6.988281 10.652344 6.988281 C 10.546875 6.980469 10.460938 6.996094 10.285156 7.046875 C 10.214844 7.070312 10.101562 7.101562 10.039062 7.113281 C 9.890625 7.144531 9.832031 7.167969 9.589844 7.273438 C 9.296875 7.40625 9.21875 7.449219 9.085938 7.5625 C 8.996094 7.640625 8.917969 7.699219 8.8125 7.769531 C 8.636719 7.882812 8.488281 8.058594 8.347656 8.328125 C 8.265625 8.476562 8.234375 8.675781 8.234375 9 C 8.234375 9.207031 8.246094 9.335938 8.28125 9.511719 C 8.292969 9.574219 8.320312 9.699219 8.335938 9.792969 C 8.386719 10.0625 8.425781 10.164062 8.53125 10.289062 C 8.570312 10.335938 8.652344 10.414062 8.738281 10.476562 L 8.765625 10.496094 L 8.765625 10.753906 C 8.765625 10.964844 8.765625 11.023438 8.777344 11.085938 C 8.828125 11.367188 8.945312 11.519531 9.246094 11.679688 C 9.425781 11.777344 9.46875 11.816406 9.730469 12.09375 C 9.902344 12.273438 10.265625 12.628906 10.457031 12.800781 C 10.660156 12.984375 10.757812 13.085938 10.824219 13.175781 C 10.875 13.246094 10.933594 13.332031 11.140625 13.660156 C 11.234375 13.804688 11.324219 13.925781 11.367188 13.96875 C 11.417969 14.019531 11.613281 14.179688 11.707031 14.25 C 11.746094 14.277344 11.828125 14.332031 11.886719 14.367188 C 12.019531 14.449219 12.125 14.527344 12.25 14.636719 C 12.46875 14.828125 12.613281 14.9375 12.929688 15.148438 C 13.183594 15.316406 13.273438 15.382812 13.371094 15.460938 C 13.496094 15.566406 13.726562 15.730469 14.023438 15.929688 C 14.261719 16.082031 14.378906 16.15625 14.792969 16.402344 C 15.425781 16.78125 15.519531 16.832031 15.847656 16.980469 C 15.976562 17.035156 16.140625 17.109375 16.21875 17.144531 C 16.414062 17.234375 16.550781 17.296875 16.636719 17.328125 C 16.679688 17.34375 16.792969 17.390625 16.886719 17.4375 C 17.144531 17.558594 17.25 17.597656 17.410156 17.625 C 17.511719 17.640625 17.613281 17.671875 17.667969 17.699219 C 17.730469 17.730469 17.808594 17.75 17.902344 17.757812 C 18.027344 17.769531 18.097656 17.78125 18.257812 17.835938 C 18.414062 17.886719 18.453125 17.894531 18.71875 17.953125 C 18.953125 18.003906 19.085938 18.042969 19.167969 18.078125 C 19.277344 18.125 19.449219 18.160156 19.769531 18.203125 C 19.859375 18.214844 19.972656 18.230469 20.023438 18.238281 C 20.148438 18.257812 20.675781 18.359375 20.886719 18.402344 C 21.113281 18.449219 21.175781 18.460938 21.289062 18.46875 C 21.398438 18.476562 21.398438 18.476562 21.488281 18.503906 C 21.523438 18.515625 21.605469 18.539062 21.675781 18.554688 C 21.847656 18.597656 21.972656 18.648438 22.09375 18.726562 C 22.121094 18.742188 22.1875 18.78125 22.246094 18.808594 C 22.363281 18.867188 22.386719 18.886719 22.449219 18.992188 C 22.472656 19.03125 22.503906 19.078125 22.523438 19.101562 C 22.597656 19.195312 22.613281 19.234375 22.605469 19.316406 C 22.601562 19.335938 22.585938 19.484375 22.570312 19.640625 C 22.53125 19.996094 22.511719 20.101562 22.449219 20.28125 C 22.402344 20.40625 22.371094 20.460938 22.328125 20.488281 C 22.265625 20.535156 22.179688 20.566406 22.109375 20.578125 C 22.003906 20.59375 21.589844 20.601562 21.136719 20.589844 C 20.691406 20.582031 20.507812 20.574219 20.425781 20.554688 C 20.289062 20.523438 20.144531 20.53125 19.363281 20.609375 C 19.089844 20.636719 18.90625 20.671875 18.757812 20.726562 C 18.664062 20.761719 18.542969 20.796875 18.414062 20.828125 C 18.261719 20.859375 18.1875 20.882812 18.046875 20.941406 C 17.765625 21.0625 17.277344 21.285156 17 21.425781 C 16.898438 21.472656 16.734375 21.546875 16.632812 21.589844 C 16.082031 21.816406 15.3125 22.191406 15.109375 22.328125 C 15.023438 22.386719 14.941406 22.4375 14.6875 22.566406 C 14.167969 22.828125 13.878906 23.015625 13.476562 23.347656 C 13.390625 23.417969 13.257812 23.527344 13.179688 23.589844 C 13.003906 23.730469 12.734375 23.996094 12.546875 24.210938 C 12.335938 24.449219 12.207031 24.585938 11.828125 24.980469 C 11.496094 25.320312 11.421875 25.414062 11.246094 25.664062 C 11.121094 25.84375 11.023438 25.964844 10.863281 26.136719 C 10.730469 26.285156 10.667969 26.367188 10.589844 26.5 C 10.542969 26.582031 10.464844 26.6875 10.335938 26.839844 C 10.199219 27 10.15625 27.0625 10.074219 27.195312 C 10.039062 27.253906 9.972656 27.351562 9.933594 27.410156 C 9.796875 27.605469 9.699219 27.78125 9.484375 28.210938 C 9.238281 28.714844 9.132812 28.917969 8.898438 29.335938 C 8.820312 29.476562 8.703125 29.695312 8.636719 29.824219 C 8.511719 30.066406 8.410156 30.242188 8.257812 30.46875 C 8.132812 30.660156 8.097656 30.722656 7.859375 31.230469 C 7.714844 31.539062 7.65625 31.707031 7.648438 31.863281 C 7.644531 31.949219 7.652344 31.980469 7.683594 31.984375 C 7.710938 31.988281 7.738281 31.957031 7.796875 31.867188 C 7.90625 31.707031 8.082031 31.367188 8.246094 31.003906 C 8.367188 30.730469 8.554688 30.363281 8.632812 30.238281 C 8.949219 29.746094 9.230469 29.238281 9.542969 28.597656 C 9.753906 28.164062 9.960938 27.808594 10.269531 27.355469 C 10.480469 27.042969 10.632812 26.835938 10.917969 26.480469 C 11.011719 26.363281 11.164062 26.167969 11.261719 26.042969 C 11.515625 25.714844 11.691406 25.515625 11.960938 25.230469 C 12.3125 24.867188 12.5625 24.589844 12.820312 24.265625 C 12.949219 24.109375 13.074219 23.988281 13.214844 23.882812 C 13.277344 23.835938 13.429688 23.71875 13.558594 23.621094 C 13.867188 23.378906 13.925781 23.339844 14.136719 23.203125 C 14.574219 22.917969 15.042969 22.667969 15.328125 22.570312 C 15.5 22.511719 15.875 22.441406 16.390625 22.378906 L 16.707031 22.339844 L 16.972656 22.417969 L 17.238281 22.5 L 17.417969 22.453125 C 17.726562 22.375 17.761719 22.375 18.019531 22.40625 C 18.316406 22.441406 18.59375 22.445312 19.128906 22.433594 C 19.308594 22.425781 19.445312 22.429688 19.539062 22.433594 C 19.898438 22.453125 20.410156 22.515625 20.800781 22.585938 C 21.25 22.664062 21.261719 22.664062 21.386719 22.671875 C 21.496094 22.671875 21.519531 22.671875 21.652344 22.648438 C 21.816406 22.621094 21.988281 22.601562 22.171875 22.582031 C 22.4375 22.558594 22.445312 22.554688 22.757812 22.355469 L 22.9375 22.238281 L 23.054688 22.265625 C 23.246094 22.3125 23.257812 22.320312 23.378906 22.511719 C 23.464844 22.640625 23.507812 22.683594 23.59375 22.71875 C 23.722656 22.765625 24.066406 22.859375 24.292969 22.90625 C 24.480469 22.945312 24.625 22.996094 24.824219 23.105469 C 25.050781 23.222656 25.191406 23.324219 25.183594 23.351562 C 25.167969 23.386719 25.121094 23.445312 25.003906 23.558594 C 24.851562 23.707031 24.839844 23.730469 24.84375 23.816406 C 24.847656 23.878906 24.859375 23.898438 24.910156 23.90625 C 24.921875 23.910156 24.960938 23.914062 24.992188 23.917969 C 25.066406 23.929688 25.121094 23.96875 25.210938 24.066406 C 25.398438 24.273438 25.449219 24.378906 25.617188 24.933594 C 25.667969 25.113281 25.6875 25.164062 25.703125 25.183594 C 25.734375 25.210938 25.84375 25.277344 26.015625 25.363281 C 26.296875 25.511719 26.558594 25.65625 26.953125 25.890625 C 27.71875 26.34375 27.875 26.410156 28.464844 26.527344 C 28.703125 26.574219 28.902344 26.621094 29.070312 26.675781 C 29.136719 26.695312 29.210938 26.71875 29.238281 26.726562 C 29.316406 26.746094 29.53125 26.746094 29.917969 26.734375 L 30.28125 26.71875 L 30.34375 26.667969 C 30.378906 26.640625 30.441406 26.589844 30.480469 26.558594 L 30.554688 26.5 L 30.609375 26.546875 C 30.691406 26.621094 30.765625 26.667969 30.925781 26.742188 C 31.40625 26.980469 32.171875 27.222656 32.589844 27.277344 C 32.738281 27.296875 33.011719 27.355469 33.503906 27.472656 C 33.710938 27.519531 33.898438 27.558594 34.101562 27.59375 C 34.34375 27.632812 34.414062 27.660156 34.714844 27.808594 C 35.148438 28.023438 35.296875 28.117188 35.5 28.3125 C 35.664062 28.46875 35.707031 28.53125 35.730469 28.644531 C 35.753906 28.742188 35.78125 28.765625 35.886719 28.777344 C 35.921875 28.78125 35.941406 28.777344 35.949219 28.769531 C 35.96875 28.757812 35.980469 28.6875 36.003906 28.476562 C 36.011719 28.386719 36.023438 28.316406 36.027344 28.308594 C 36.035156 28.304688 36.121094 28.25 36.21875 28.183594 C 36.476562 28.019531 36.574219 27.976562 36.628906 28 C 36.671875 28.019531 36.691406 28.066406 36.71875 28.25 C 36.734375 28.34375 36.753906 28.390625 36.792969 28.40625 C 36.832031 28.421875 36.875 28.417969 37.015625 28.386719 C 37.1875 28.34375 37.214844 28.34375 37.238281 28.386719 C 37.25 28.410156 37.253906 28.429688 37.25 28.523438 C 37.25 28.730469 37.210938 28.984375 37.152344 29.179688 C 37.085938 29.394531 37.0625 29.523438 37.054688 29.726562 C 37.050781 29.886719 37.058594 30.015625 37.089844 30.191406 C 37.121094 30.386719 37.113281 30.449219 37 30.90625 C 36.941406 31.128906 36.890625 31.300781 36.875 31.324219 C 36.867188 31.335938 36.863281 31.332031 36.859375 31.316406 C 36.851562 31.285156 36.808594 31.25 36.757812 31.238281 C 36.703125 31.222656 36.605469 31.179688 36.585938 31.15625 C 36.570312 31.136719 36.578125 31.125 36.621094 31.109375 C 36.679688 31.09375 36.710938 31.023438 36.777344 30.773438 C 36.796875 30.707031 36.808594 30.652344 36.808594 30.652344 C 36.808594 30.648438 36.742188 30.585938 36.660156 30.511719 C 36.457031 30.320312 36.40625 30.257812 36.351562 30.113281 C 36.308594 29.992188 36.257812 29.917969 36.214844 29.902344 C 36.148438 29.878906 36 29.9375 35.957031 30 C 35.953125 30.011719 35.941406 30.046875 35.933594 30.078125 C 35.929688 30.113281 35.90625 30.199219 35.882812 30.273438 C 35.824219 30.460938 35.8125 30.503906 35.8125 30.558594 C 35.8125 30.648438 35.84375 30.664062 36.097656 30.683594 C 36.230469 30.695312 36.332031 30.714844 36.332031 30.726562 C 36.332031 30.738281 36.140625 31.113281 36.125 31.128906 C 36.121094 31.136719 36.082031 31.140625 35.992188 31.140625 C 35.851562 31.140625 35.796875 31.148438 35.769531 31.175781 C 35.746094 31.199219 35.75 31.222656 35.777344 31.253906 C 35.796875 31.285156 35.792969 31.304688 35.753906 31.34375 C 35.691406 31.402344 35.710938 31.425781 35.84375 31.453125 C 35.890625 31.457031 35.980469 31.476562 36.046875 31.492188 C 36.15625 31.519531 36.570312 31.625 36.59375 31.632812 C 36.597656 31.636719 36.648438 31.601562 36.699219 31.5625 C 36.820312 31.464844 36.847656 31.449219 36.847656 31.457031 C 36.847656 31.460938 36.824219 31.53125 36.792969 31.613281 C 36.710938 31.824219 36.675781 31.941406 36.625 32.183594 C 36.59375 32.347656 36.550781 32.492188 36.488281 32.664062 C 36.386719 32.945312 36.378906 32.988281 36.363281 33.242188 C 36.355469 33.398438 36.339844 33.445312 36.234375 33.660156 C 36.105469 33.917969 36.085938 33.988281 36.058594 34.203125 C 36.035156 34.359375 36.007812 34.488281 35.96875 34.617188 C 35.910156 34.792969 35.882812 34.898438 35.859375 35.078125 C 35.832031 35.304688 35.800781 35.394531 35.613281 35.8125 C 35.398438 36.289062 35.363281 36.382812 35.339844 36.585938 C 35.316406 36.792969 35.300781 36.839844 35.210938 37.019531 C 35.175781 37.089844 35.144531 37.160156 35.136719 37.179688 C 35.128906 37.21875 35.128906 37.21875 35.152344 37.238281 C 35.183594 37.261719 35.3125 37.328125 35.445312 37.386719 C 35.730469 37.511719 36.0625 37.691406 36.332031 37.875 C 36.902344 38.257812 37.480469 38.898438 37.738281 39.425781 C 37.796875 39.542969 37.855469 39.695312 37.882812 39.800781 C 37.90625 39.902344 37.914062 40.003906 37.914062 40.210938 C 37.914062 40.527344 37.898438 40.640625 37.804688 41.019531 C 37.769531 41.15625 37.738281 41.28125 37.734375 41.296875 L 37.726562 41.324219 L 37.582031 41.359375 C 37.265625 41.429688 37.234375 41.441406 37.128906 41.519531 C 37.066406 41.566406 37.03125 41.59375 36.664062 41.910156 L 36.464844 42.078125 L 36.460938 42.476562 C 36.460938 42.695312 36.453125 42.90625 36.449219 42.953125 C 36.421875 43.234375 36.378906 43.429688 36.261719 43.847656 L 36.203125 44.0625 L 36.230469 44.085938 C 36.246094 44.097656 36.273438 44.121094 36.296875 44.136719 C 36.351562 44.171875 36.367188 44.167969 36.421875 44.101562 C 36.496094 44.011719 36.539062 43.910156 36.578125 43.746094 C 36.625 43.539062 36.644531 43.324219 36.667969 42.753906 C 36.679688 42.542969 36.6875 42.367188 36.691406 42.363281 C 36.699219 42.355469 37.058594 42.226562 37.160156 42.195312 C 37.21875 42.175781 37.308594 42.152344 37.363281 42.140625 C 37.535156 42.097656 37.667969 42.042969 37.734375 41.980469 C 37.777344 41.9375 37.832031 41.835938 37.894531 41.679688 C 37.972656 41.480469 38.011719 41.339844 38.046875 41.148438 C 38.050781 41.109375 38.070312 41.046875 38.082031 41.011719 C 38.15625 40.800781 38.164062 40.746094 38.164062 40.355469 C 38.164062 40.003906 38.15625 39.953125 38.101562 39.691406 C 38.082031 39.605469 38.058594 39.496094 38.050781 39.449219 C 38.039062 39.402344 38.023438 39.335938 38.011719 39.304688 C 37.945312 39.089844 37.765625 38.828125 37.46875 38.507812 C 37.351562 38.378906 36.945312 37.984375 36.824219 37.875 C 36.632812 37.703125 36.164062 37.398438 35.863281 37.25 C 35.6875 37.160156 35.613281 37.121094 35.589844 37.09375 L 35.570312 37.070312 L 35.589844 37.027344 C 35.671875 36.824219 35.882812 36.144531 35.882812 36.082031 C 35.882812 36.050781 35.925781 35.9375 35.972656 35.832031 C 36.105469 35.539062 36.328125 34.878906 36.441406 34.457031 C 36.464844 34.359375 36.5 34.234375 36.519531 34.175781 C 36.574219 34 36.59375 33.914062 36.652344 33.496094 C 36.734375 32.945312 36.8125 32.59375 36.898438 32.386719 C 36.953125 32.257812 36.964844 32.207031 36.992188 32.078125 C 37.019531 31.925781 37.054688 31.8125 37.121094 31.644531 C 37.21875 31.398438 37.242188 31.316406 37.3125 30.964844 C 37.328125 30.875 37.359375 30.742188 37.378906 30.667969 C 37.472656 30.320312 37.492188 30.210938 37.523438 29.871094 C 37.542969 29.648438 37.566406 29.488281 37.59375 29.335938 C 37.605469 29.269531 37.625 29.167969 37.632812 29.105469 C 37.660156 28.925781 37.722656 28.683594 37.816406 28.402344 C 37.871094 28.230469 37.886719 28.136719 37.917969 27.808594 C 37.960938 27.367188 37.980469 27.300781 38.125 27.128906 C 38.164062 27.074219 38.273438 26.9375 38.363281 26.820312 C 38.585938 26.523438 38.746094 26.339844 38.957031 26.140625 C 39.09375 26.003906 39.160156 25.960938 39.339844 25.875 C 39.628906 25.730469 39.78125 25.632812 39.972656 25.453125 C 40.058594 25.371094 40.15625 25.300781 40.265625 25.238281 C 40.554688 25.070312 40.734375 24.929688 40.972656 24.691406 C 41.304688 24.363281 41.535156 24.046875 41.6875 23.695312 C 41.738281 23.570312 41.75 23.496094 41.765625 23.207031 L 41.773438 23.035156 L 41.957031 22.847656 C 42.171875 22.628906 42.238281 22.554688 42.296875 22.464844 C 42.371094 22.355469 42.382812 22.316406 42.457031 22.003906 C 42.507812 21.78125 42.515625 21.699219 42.535156 21.417969 C 42.542969 21.285156 42.566406 20.714844 42.566406 20.632812 L 42.566406 20.585938 L 42.695312 20.511719 C 42.996094 20.34375 43.058594 20.277344 43.125 20.0625 C 43.171875 19.902344 43.191406 19.769531 43.199219 19.539062 C 43.207031 19.355469 43.21875 19.269531 43.242188 19.15625 C 43.261719 19.070312 43.273438 18.910156 43.269531 18.804688 C 43.261719 18.675781 43.238281 18.558594 43.199219 18.433594 C 43.15625 18.308594 43.148438 18.265625 43.140625 18.167969 C 43.132812 18.128906 43.125 18.070312 43.113281 18.042969 C 43.089844 17.964844 43.003906 17.800781 42.933594 17.695312 C 42.839844 17.554688 42.757812 17.476562 42.628906 17.402344 C 42.527344 17.34375 42.445312 17.3125 42.195312 17.234375 C 42.074219 17.195312 42.007812 17.152344 41.851562 17.015625 C 41.746094 16.921875 41.613281 16.820312 41.503906 16.753906 C 41.378906 16.671875 41.222656 16.519531 40.941406 16.199219 C 40.1875 15.34375 40.027344 15.171875 39.679688 14.851562 C 39.316406 14.515625 39.152344 14.382812 38.878906 14.214844 C 38.820312 14.183594 38.746094 14.128906 38.710938 14.101562 C 38.632812 14.039062 38 13.625 37.855469 13.539062 C 37.625 13.398438 37.375 13.210938 37.363281 13.164062 C 37.359375 13.152344 37.386719 13.085938 37.449219 12.953125 C 37.554688 12.734375 37.574219 12.6875 37.589844 12.609375 C 37.597656 12.566406 37.628906 12.503906 37.71875 12.324219 C 37.863281 12.050781 37.910156 11.964844 38.03125 11.773438 C 38.132812 11.613281 38.214844 11.449219 38.230469 11.386719 C 38.246094 11.304688 38.261719 11.265625 38.292969 11.222656 C 38.363281 11.128906 38.398438 11.070312 38.40625 11.046875 C 38.40625 11.027344 38.433594 11 38.496094 10.9375 C 38.613281 10.820312 38.714844 10.695312 38.828125 10.503906 C 38.914062 10.363281 38.945312 10.296875 38.964844 10.183594 C 38.972656 10.152344 39.019531 10.054688 39.113281 9.867188 C 39.300781 9.496094 39.339844 9.402344 39.429688 9.105469 C 39.441406 9.0625 39.460938 9.007812 39.476562 8.984375 C 39.488281 8.964844 39.542969 8.855469 39.597656 8.75 C 39.71875 8.523438 39.769531 8.4375 39.839844 8.359375 C 39.976562 8.203125 40.148438 7.957031 40.246094 7.789062 C 40.335938 7.628906 40.472656 7.355469 40.492188 7.300781 C 40.496094 7.28125 40.535156 7.207031 40.574219 7.140625 C 40.71875 6.890625 40.746094 6.800781 40.792969 6.417969 C 40.859375 5.898438 40.851562 5.921875 40.980469 5.753906 C 41 5.726562 41.039062 5.671875 41.058594 5.632812 C 41.109375 5.554688 41.214844 5.433594 41.328125 5.332031 C 41.542969 5.132812 41.648438 4.972656 41.820312 4.542969 C 41.875 4.40625 41.925781 4.289062 42.039062 4.046875 C 42.191406 3.726562 42.199219 3.703125 42.21875 3.4375 C 42.234375 3.21875 42.25 3.117188 42.289062 3.039062 C 42.304688 3.003906 42.328125 2.929688 42.34375 2.871094 C 42.375 2.75 42.4375 2.5625 42.507812 2.390625 C 42.574219 2.230469 42.609375 2.0625 42.640625 1.78125 C 42.660156 1.605469 42.660156 1.515625 42.636719 1.460938 C 42.574219 1.304688 42.363281 1.296875 42.121094 1.445312 C 42.039062 1.496094 41.949219 1.523438 41.878906 1.523438 C 41.804688 1.523438 41.800781 1.519531 41.8125 1.441406 C 41.820312 1.375 41.816406 1.339844 41.800781 1.332031 C 41.78125 1.328125 41.765625 1.347656 41.757812 1.394531 C 41.75 1.449219 41.738281 1.472656 41.671875 1.558594 L 41.621094 1.625 L 41.667969 1.722656 C 41.761719 1.914062 41.820312 2.042969 41.820312 2.050781 C 41.820312 2.0625 41.773438 2.066406 41.605469 2.074219 C 41.433594 2.082031 41.394531 2.089844 41.367188 2.128906 C 41.339844 2.160156 41.34375 2.171875 41.402344 2.199219 C 41.429688 2.210938 41.453125 2.226562 41.457031 2.234375 C 41.464844 2.253906 41.429688 2.28125 41.378906 2.292969 C 41.3125 2.308594 41.277344 2.289062 41.183594 2.199219 C 41.082031 2.105469 41.0625 2.089844 41.035156 2.089844 C 41.007812 2.089844 40.976562 2.117188 40.960938 2.148438 C 40.945312 2.183594 40.949219 2.277344 40.964844 2.3125 C 40.980469 2.347656 41.019531 2.371094 41.1875 2.425781 C 41.320312 2.46875 41.335938 2.476562 41.335938 2.492188 C 41.335938 2.511719 41.308594 2.523438 41.253906 2.523438 C 41.214844 2.523438 41.199219 2.519531 41.160156 2.488281 C 41.132812 2.472656 41.105469 2.480469 41.058594 2.523438 C 41.007812 2.570312 41.007812 2.585938 41.082031 2.640625 L 41.136719 2.683594 L 41.050781 2.6875 C 40.894531 2.695312 40.824219 2.746094 40.882812 2.816406 C 40.90625 2.839844 40.902344 2.847656 40.871094 2.847656 C 40.84375 2.847656 40.808594 2.878906 40.808594 2.902344 C 40.808594 2.9375 40.710938 2.957031 40.644531 2.933594 C 40.585938 2.917969 40.554688 2.851562 40.5625 2.785156 C 40.566406 2.730469 40.589844 2.6875 40.640625 2.632812 C 40.664062 2.605469 40.6875 2.574219 40.691406 2.5625 C 40.699219 2.550781 40.703125 2.484375 40.703125 2.390625 C 40.703125 2.25 40.703125 2.238281 40.726562 2.175781 C 40.757812 2.085938 40.785156 2.023438 40.835938 1.945312 C 40.871094 1.890625 40.878906 1.871094 40.878906 1.84375 C 40.878906 1.78125 40.824219 1.742188 40.679688 1.703125 C 40.574219 1.675781 40.558594 1.660156 40.558594 1.597656 C 40.558594 1.546875 40.574219 1.492188 40.601562 1.460938 C 40.613281 1.445312 40.644531 1.421875 40.683594 1.402344 C 40.785156 1.351562 40.859375 1.296875 41.050781 1.152344 C 41.226562 1.019531 41.492188 0.867188 41.601562 0.839844 C 41.644531 0.828125 41.671875 0.828125 41.800781 0.832031 C 42.128906 0.847656 42.191406 0.835938 42.191406 0.746094 C 42.191406 0.695312 42.140625 0.660156 42.011719 0.621094 C 41.953125 0.605469 41.921875 0.601562 41.835938 0.601562 C 41.777344 0.597656 41.71875 0.597656 41.703125 0.601562 Z M 40.320312 4.097656 C 40.347656 4.113281 40.34375 4.125 40.308594 4.167969 C 40.269531 4.210938 40.257812 4.261719 40.261719 4.347656 C 40.269531 4.472656 40.316406 4.589844 40.378906 4.648438 L 40.410156 4.683594 L 40.386719 4.6875 C 40.371094 4.6875 40.34375 4.691406 40.328125 4.695312 C 40.3125 4.695312 40.289062 4.707031 40.28125 4.714844 C 40.238281 4.753906 40.132812 4.765625 40.074219 4.738281 C 40.050781 4.726562 40.039062 4.710938 40.019531 4.675781 C 39.984375 4.609375 39.976562 4.578125 39.988281 4.527344 C 39.996094 4.488281 40.105469 4.207031 40.136719 4.148438 C 40.164062 4.089844 40.265625 4.0625 40.320312 4.097656 Z M 36.597656 9.644531 C 36.691406 9.664062 36.808594 9.675781 36.882812 9.675781 C 36.960938 9.675781 36.992188 9.691406 37.003906 9.738281 C 37.015625 9.777344 37.011719 9.800781 36.976562 9.847656 C 36.953125 9.882812 36.835938 9.984375 36.789062 10.007812 C 36.746094 10.03125 36.714844 10.082031 36.710938 10.144531 C 36.707031 10.183594 36.707031 10.1875 36.730469 10.210938 C 36.742188 10.222656 36.765625 10.234375 36.78125 10.234375 C 36.792969 10.238281 36.832031 10.242188 36.859375 10.246094 C 36.925781 10.257812 36.941406 10.269531 36.898438 10.277344 C 36.792969 10.308594 36.417969 10.355469 36.242188 10.363281 L 36.121094 10.367188 L 36.101562 10.347656 C 36.085938 10.332031 36.082031 10.320312 36.082031 10.289062 C 36.082031 10.21875 36.101562 10.183594 36.175781 10.148438 C 36.253906 10.105469 36.292969 10.046875 36.433594 9.792969 C 36.480469 9.703125 36.523438 9.628906 36.523438 9.628906 C 36.523438 9.628906 36.558594 9.636719 36.597656 9.644531 Z M 35.703125 10.101562 C 35.765625 10.113281 35.804688 10.136719 35.824219 10.171875 C 35.835938 10.1875 35.859375 10.21875 35.878906 10.242188 C 35.898438 10.261719 35.914062 10.285156 35.914062 10.292969 C 35.914062 10.308594 35.90625 10.324219 35.851562 10.398438 C 35.816406 10.449219 35.808594 10.476562 35.824219 10.5 C 35.839844 10.523438 35.914062 10.558594 36.066406 10.617188 C 36.183594 10.660156 36.210938 10.675781 36.175781 10.675781 C 36.167969 10.675781 36.113281 10.6875 36.0625 10.707031 C 35.933594 10.746094 35.898438 10.746094 35.761719 10.707031 C 35.507812 10.640625 35.410156 10.632812 35.214844 10.652344 C 35.167969 10.660156 35.128906 10.664062 35.125 10.664062 C 35.125 10.660156 35.128906 10.628906 35.136719 10.59375 C 35.152344 10.496094 35.148438 10.402344 35.125 10.375 C 35.085938 10.324219 35.109375 10.304688 35.234375 10.296875 C 35.328125 10.289062 35.367188 10.277344 35.386719 10.265625 C 35.390625 10.257812 35.40625 10.253906 35.421875 10.25 C 35.460938 10.238281 35.449219 10.261719 35.390625 10.320312 C 35.324219 10.382812 35.289062 10.425781 35.289062 10.4375 C 35.289062 10.457031 35.355469 10.46875 35.503906 10.484375 L 35.539062 10.488281 L 35.539062 10.085938 L 35.601562 10.089844 C 35.632812 10.09375 35.679688 10.097656 35.703125 10.101562 Z M 10.429688 11.726562 C 10.570312 11.871094 10.828125 12.257812 10.96875 12.535156 C 11.066406 12.726562 11.136719 12.832031 11.296875 13.011719 C 11.449219 13.183594 11.523438 13.292969 11.550781 13.386719 C 11.558594 13.417969 11.582031 13.480469 11.597656 13.527344 C 11.613281 13.578125 11.621094 13.617188 11.621094 13.621094 C 11.609375 13.632812 11.472656 13.597656 11.4375 13.578125 C 11.371094 13.53125 11.328125 13.472656 10.910156 12.851562 C 10.441406 12.15625 10.34375 12 10.316406 11.882812 C 10.304688 11.84375 10.304688 11.824219 10.3125 11.777344 C 10.332031 11.652344 10.355469 11.644531 10.429688 11.726562 Z M 39.617188 21.746094 C 39.90625 21.789062 40.132812 21.835938 40.160156 21.859375 C 40.175781 21.871094 40.175781 21.871094 40.152344 21.90625 C 40.136719 21.925781 40.128906 21.945312 40.128906 21.949219 C 40.128906 21.957031 40.148438 21.984375 40.175781 22.007812 C 40.222656 22.050781 40.222656 22.050781 40.207031 22.058594 C 40.164062 22.082031 39.910156 22.054688 39.710938 22.007812 C 39.484375 21.949219 39.320312 21.871094 39.320312 21.828125 C 39.320312 21.785156 39.398438 21.726562 39.457031 21.726562 C 39.472656 21.726562 39.542969 21.738281 39.617188 21.746094 Z M 39.617188 21.746094 "/>
<path style=" stroke:none;fill-rule:nonzero;fill:rgb(0%,0%,0%);fill-opacity:1;" d="M 11.402344 7.050781 C 11.402344 7.09375 11.40625 7.136719 11.410156 7.144531 C 11.421875 7.164062 11.457031 7.171875 11.601562 7.1875 C 11.898438 7.214844 12.441406 7.222656 12.492188 7.199219 C 12.507812 7.1875 12.511719 7.183594 12.515625 7.136719 C 12.515625 7.101562 12.511719 7.085938 12.5 7.066406 C 12.480469 7.039062 12.425781 7.015625 12.339844 7 C 12.257812 6.988281 11.9375 6.976562 11.617188 6.972656 L 11.402344 6.972656 Z M 11.402344 7.050781 "/>
<path style=" stroke:none;fill-rule:nonzero;fill:rgb(0%,0%,0%);fill-opacity:1;" d="M 19.640625 7.699219 C 19.609375 7.710938 19.605469 7.722656 19.605469 7.78125 C 19.605469 7.867188 19.625 7.878906 19.78125 7.902344 C 19.925781 7.925781 20.089844 7.972656 20.417969 8.09375 C 20.929688 8.285156 21.707031 8.621094 22.042969 8.796875 C 22.121094 8.835938 22.777344 9.199219 23.429688 9.5625 C 23.761719 9.746094 24.132812 9.957031 24.261719 10.039062 C 24.371094 10.101562 24.414062 10.128906 24.667969 10.261719 C 24.726562 10.292969 24.808594 10.34375 24.855469 10.375 C 24.996094 10.464844 25.089844 10.519531 25.269531 10.621094 C 25.367188 10.671875 25.511719 10.757812 25.597656 10.804688 C 25.765625 10.90625 25.882812 10.972656 26.113281 11.09375 C 26.382812 11.238281 26.484375 11.296875 26.746094 11.476562 C 26.898438 11.574219 26.984375 11.609375 27.078125 11.609375 C 27.121094 11.609375 27.1875 11.585938 27.1875 11.574219 C 27.1875 11.570312 27.191406 11.5625 27.191406 11.554688 C 27.203125 11.527344 27.050781 11.394531 26.902344 11.296875 C 26.875 11.277344 26.820312 11.246094 26.78125 11.222656 C 26.738281 11.203125 26.671875 11.160156 26.632812 11.132812 C 26.453125 11.011719 26.40625 10.984375 26.253906 10.90625 C 26.039062 10.800781 25.855469 10.699219 25.648438 10.578125 C 25.550781 10.523438 25.433594 10.457031 25.378906 10.433594 C 25.328125 10.410156 25.226562 10.355469 25.15625 10.3125 C 25.085938 10.273438 24.9375 10.1875 24.824219 10.128906 C 24.554688 9.980469 24.496094 9.941406 24.324219 9.808594 C 24.132812 9.65625 23.996094 9.574219 23.511719 9.328125 C 23.222656 9.179688 23.09375 9.113281 22.917969 9.015625 C 22.847656 8.976562 22.742188 8.917969 22.679688 8.886719 C 22.617188 8.855469 22.464844 8.769531 22.335938 8.703125 C 21.980469 8.503906 21.414062 8.230469 21.132812 8.121094 C 21.015625 8.074219 20.664062 7.953125 20.46875 7.890625 C 20.328125 7.847656 20.296875 7.835938 20.148438 7.804688 C 20.117188 7.796875 20.027344 7.773438 19.957031 7.75 C 19.820312 7.710938 19.726562 7.6875 19.683594 7.6875 C 19.671875 7.6875 19.652344 7.691406 19.640625 7.699219 Z M 19.640625 7.699219 "/>
<path style=" stroke:none;fill-rule:nonzero;fill:rgb(0%,0%,0%);fill-opacity:1;" d="M 9.441406 8.035156 C 9.441406 8.171875 9.421875 8.207031 9.304688 8.304688 C 9.222656 8.375 9.210938 8.394531 9.222656 8.445312 C 9.25 8.546875 9.308594 8.605469 9.523438 8.734375 C 9.820312 8.910156 10.042969 9.0625 10.136719 9.152344 C 10.179688 9.191406 10.183594 9.199219 10.175781 9.214844 C 10.171875 9.222656 10.164062 9.234375 10.160156 9.234375 C 10.144531 9.246094 10.089844 9.242188 10 9.226562 C 9.859375 9.203125 9.832031 9.207031 9.832031 9.257812 C 9.832031 9.289062 9.839844 9.300781 9.921875 9.402344 C 9.941406 9.429688 9.960938 9.457031 9.964844 9.460938 C 9.972656 9.480469 10.085938 9.488281 10.269531 9.488281 C 10.417969 9.488281 10.527344 9.5 10.566406 9.515625 C 10.589844 9.527344 10.59375 9.535156 10.601562 9.5625 C 10.621094 9.625 10.59375 9.777344 10.558594 9.828125 C 10.539062 9.855469 10.507812 9.847656 10.492188 9.820312 C 10.472656 9.773438 10.421875 9.707031 10.402344 9.699219 C 10.390625 9.695312 10.371094 9.695312 10.355469 9.699219 C 10.308594 9.710938 10.191406 9.773438 10.171875 9.796875 L 10.152344 9.816406 L 10.171875 9.835938 C 10.210938 9.875 10.410156 9.960938 10.542969 9.988281 C 10.570312 9.996094 10.617188 10 10.644531 10 C 10.722656 10 10.753906 10.011719 10.765625 10.046875 C 10.769531 10.0625 10.773438 10.085938 10.773438 10.101562 C 10.773438 10.136719 10.765625 10.140625 10.710938 10.121094 C 10.65625 10.101562 10.546875 10.078125 10.503906 10.078125 C 10.464844 10.078125 10.460938 10.078125 10.457031 10.097656 C 10.453125 10.105469 10.457031 10.152344 10.460938 10.199219 C 10.464844 10.246094 10.46875 10.285156 10.46875 10.289062 C 10.46875 10.292969 10.605469 10.296875 10.773438 10.296875 L 11.078125 10.296875 L 11.183594 10.410156 C 11.359375 10.597656 11.464844 10.730469 11.464844 10.753906 C 11.464844 10.757812 11.472656 10.769531 11.480469 10.78125 L 11.5 10.800781 L 11.402344 10.792969 C 11.3125 10.789062 11.296875 10.789062 11.28125 10.800781 C 11.269531 10.808594 11.261719 10.820312 11.261719 10.824219 C 11.261719 10.84375 11.316406 10.898438 11.371094 10.929688 C 11.484375 10.996094 11.613281 11.042969 11.796875 11.074219 C 11.984375 11.105469 12.148438 11.152344 12.148438 11.175781 C 12.148438 11.1875 12.113281 11.203125 12.058594 11.21875 C 12.011719 11.234375 11.992188 11.25 11.992188 11.277344 C 11.992188 11.300781 12.054688 11.390625 12.078125 11.398438 C 12.097656 11.402344 12.113281 11.402344 12.152344 11.386719 C 12.21875 11.363281 12.253906 11.367188 12.367188 11.414062 C 12.554688 11.488281 12.785156 11.613281 12.929688 11.722656 C 13.078125 11.832031 13.128906 11.851562 13.34375 11.882812 C 13.636719 11.921875 13.652344 11.929688 13.808594 12.097656 C 13.917969 12.214844 14.03125 12.363281 14.113281 12.492188 C 14.144531 12.546875 14.222656 12.6875 14.289062 12.8125 C 14.597656 13.40625 14.738281 13.621094 14.851562 13.675781 C 14.914062 13.707031 15.007812 13.691406 15.027344 13.648438 C 15.046875 13.59375 15.015625 13.519531 14.882812 13.320312 C 14.652344 12.96875 14.453125 12.546875 14.421875 12.324219 C 14.410156 12.246094 14.417969 12.222656 14.464844 12.210938 C 14.484375 12.207031 14.507812 12.191406 14.53125 12.167969 L 14.570312 12.125 L 14.597656 12.140625 C 14.609375 12.144531 14.648438 12.171875 14.679688 12.195312 C 14.824219 12.308594 14.910156 12.347656 15.128906 12.40625 C 15.308594 12.453125 15.460938 12.507812 15.734375 12.625 C 15.859375 12.675781 15.90625 12.6875 16.101562 12.695312 C 16.402344 12.707031 16.617188 12.757812 16.832031 12.863281 C 16.929688 12.910156 16.972656 12.941406 17.128906 13.070312 C 17.21875 13.148438 17.28125 13.191406 17.3125 13.207031 C 17.371094 13.234375 17.464844 13.257812 17.597656 13.273438 C 17.789062 13.304688 17.953125 13.34375 18.097656 13.394531 C 18.238281 13.445312 18.3125 13.460938 18.378906 13.464844 C 18.433594 13.464844 18.445312 13.460938 18.464844 13.449219 C 18.503906 13.421875 18.5 13.398438 18.449219 13.347656 C 18.40625 13.304688 18.40625 13.300781 18.417969 13.289062 C 18.464844 13.238281 18.617188 13.257812 18.828125 13.339844 C 18.945312 13.386719 19.058594 13.453125 19.210938 13.5625 C 19.28125 13.617188 19.414062 13.707031 19.5 13.765625 C 19.683594 13.890625 20.15625 14.183594 20.167969 14.183594 C 20.171875 14.183594 20.242188 14.15625 20.328125 14.121094 C 20.535156 14.035156 20.578125 14.023438 20.695312 14.027344 C 20.832031 14.035156 20.96875 14.074219 21.125 14.140625 C 21.347656 14.242188 21.554688 14.289062 22.066406 14.363281 C 22.371094 14.40625 22.441406 14.425781 22.761719 14.570312 C 22.992188 14.675781 23.210938 14.761719 23.300781 14.789062 C 23.398438 14.816406 23.496094 14.824219 23.765625 14.824219 C 24.394531 14.824219 24.511719 14.855469 24.710938 15.085938 C 24.789062 15.175781 24.851562 15.191406 24.945312 15.148438 C 24.972656 15.132812 25.011719 15.105469 25.035156 15.082031 C 25.105469 15.011719 25.109375 14.945312 25.050781 14.824219 C 25 14.71875 24.855469 14.511719 24.75 14.386719 C 24.675781 14.300781 24.613281 14.257812 24.460938 14.179688 C 24.242188 14.070312 24.191406 14.027344 24.074219 13.867188 C 23.96875 13.730469 23.933594 13.667969 23.933594 13.609375 C 23.933594 13.550781 23.976562 13.511719 24.117188 13.453125 C 24.269531 13.390625 24.308594 13.363281 24.304688 13.304688 C 24.304688 13.25 24.242188 13.183594 24.066406 13.03125 C 23.800781 12.8125 23.734375 12.78125 23.34375 12.699219 L 23.28125 12.683594 L 23.1875 12.496094 C 23.039062 12.191406 22.992188 12.136719 22.621094 11.777344 C 22.5 11.664062 22.363281 11.53125 22.3125 11.488281 L 22.226562 11.402344 L 22.070312 11.390625 C 21.792969 11.371094 21.476562 11.316406 21.1875 11.238281 C 21.164062 11.234375 21.140625 11.210938 21.027344 11.070312 C 20.804688 10.792969 20.824219 10.804688 20.214844 10.515625 C 19.863281 10.351562 19.71875 10.273438 19.664062 10.230469 C 19.628906 10.203125 19.609375 10.164062 19.617188 10.136719 C 19.625 10.105469 19.632812 10.09375 19.675781 10.066406 C 19.722656 10.039062 19.746094 10.015625 19.761719 9.984375 C 19.78125 9.949219 19.800781 9.828125 19.796875 9.800781 C 19.785156 9.761719 19.753906 9.714844 19.691406 9.660156 C 19.621094 9.59375 19.527344 9.542969 19.398438 9.496094 C 19.199219 9.421875 19.03125 9.34375 18.898438 9.265625 C 18.738281 9.164062 18.675781 9.144531 18.464844 9.121094 C 18.3125 9.109375 18.222656 9.09375 18.117188 9.066406 C 18.042969 9.046875 17.992188 9.03125 17.671875 8.921875 C 17.402344 8.828125 17 8.714844 16.808594 8.679688 C 16.726562 8.664062 16.59375 8.664062 16.367188 8.671875 C 16.210938 8.679688 16.203125 8.679688 16.109375 8.660156 C 16.058594 8.648438 15.957031 8.621094 15.882812 8.601562 C 15.8125 8.578125 15.660156 8.535156 15.550781 8.503906 C 15.210938 8.40625 15.132812 8.394531 15.039062 8.4375 C 14.96875 8.472656 14.96875 8.476562 14.964844 8.707031 L 14.960938 8.902344 L 14.839844 8.960938 C 14.679688 9.035156 14.597656 9.070312 14.578125 9.070312 C 14.5625 9.070312 14.492188 9.023438 14.382812 8.933594 C 14.226562 8.804688 14.195312 8.792969 13.964844 8.769531 C 13.609375 8.730469 13.339844 8.648438 13.03125 8.476562 C 12.78125 8.339844 12.71875 8.3125 12.566406 8.292969 C 12.425781 8.273438 12.226562 8.277344 12.125 8.296875 C 12.023438 8.316406 11.957031 8.34375 11.957031 8.367188 C 11.957031 8.394531 12.128906 8.613281 12.179688 8.648438 C 12.207031 8.667969 12.21875 8.664062 12.316406 8.621094 C 12.390625 8.585938 12.445312 8.570312 12.503906 8.570312 C 12.554688 8.570312 12.601562 8.589844 12.589844 8.609375 C 12.585938 8.613281 12.566406 8.625 12.542969 8.632812 C 12.496094 8.652344 12.476562 8.683594 12.476562 8.726562 C 12.476562 8.769531 12.378906 8.808594 12.273438 8.808594 C 12.203125 8.808594 12.175781 8.785156 12.019531 8.59375 L 11.886719 8.429688 L 11.699219 8.429688 C 11.460938 8.421875 11.453125 8.421875 11.269531 8.3125 C 10.996094 8.152344 10.875 8.125 10.265625 8.0625 C 9.890625 8.023438 9.652344 8 9.539062 7.980469 L 9.441406 7.96875 Z M 9.441406 8.035156 "/>
<path style=" stroke:none;fill-rule:nonzero;fill:rgb(0%,0%,0%);fill-opacity:1;" d="M 31.65625 11.652344 L 31.65625 11.753906 L 31.71875 11.761719 C 31.75 11.765625 31.882812 11.765625 32.011719 11.765625 C 32.230469 11.765625 32.296875 11.761719 32.382812 11.742188 C 32.433594 11.730469 32.597656 11.671875 32.597656 11.664062 C 32.597656 11.65625 32.488281 11.613281 32.441406 11.605469 C 32.351562 11.585938 32.191406 11.574219 31.992188 11.566406 C 31.878906 11.5625 31.757812 11.554688 31.722656 11.554688 L 31.65625 11.550781 Z M 31.65625 11.652344 "/>
<path style=" stroke:none;fill-rule:nonzero;fill:rgb(0%,0%,0%);fill-opacity:1;" d="M 35 15.21875 C 34.898438 15.230469 34.8125 15.246094 34.75 15.273438 C 34.597656 15.339844 34.242188 15.535156 34.117188 15.621094 C 33.964844 15.730469 33.800781 15.882812 33.507812 16.183594 C 33.242188 16.457031 33.191406 16.511719 33.113281 16.609375 C 33.050781 16.691406 33.027344 16.726562 33.03125 16.761719 C 33.035156 16.78125 33.039062 16.785156 33.058594 16.789062 C 33.089844 16.796875 33.167969 16.851562 33.273438 16.941406 C 33.734375 17.335938 33.953125 17.46875 34.488281 17.675781 C 34.894531 17.832031 35.1875 17.917969 35.460938 17.960938 C 35.660156 17.988281 35.769531 18.007812 35.917969 18.039062 C 36.054688 18.070312 36.132812 18.074219 36.191406 18.054688 C 36.234375 18.039062 36.324219 17.976562 36.445312 17.878906 C 36.570312 17.773438 36.59375 17.742188 36.605469 17.648438 C 36.609375 17.617188 36.625 17.574219 36.632812 17.554688 C 36.660156 17.503906 36.714844 17.429688 36.722656 17.4375 C 36.726562 17.4375 36.738281 17.460938 36.746094 17.488281 C 36.773438 17.550781 36.824219 17.605469 36.871094 17.617188 C 37.015625 17.65625 37.242188 17.492188 37.253906 17.339844 C 37.257812 17.308594 37.253906 17.292969 37.226562 17.242188 C 37.191406 17.167969 37.109375 17.035156 37.015625 16.894531 C 36.808594 16.589844 36.773438 16.515625 36.722656 16.246094 C 36.703125 16.132812 36.679688 16.089844 36.617188 16.023438 C 36.433594 15.832031 35.816406 15.363281 35.648438 15.285156 C 35.554688 15.242188 35.410156 15.21875 35.210938 15.214844 C 35.128906 15.210938 35.035156 15.214844 35 15.21875 Z M 35.308594 16.125 C 35.40625 16.167969 35.539062 16.277344 35.566406 16.335938 C 35.574219 16.351562 35.578125 16.375 35.578125 16.390625 C 35.578125 16.4375 35.558594 16.453125 35.449219 16.488281 C 35.253906 16.550781 34.984375 16.621094 34.921875 16.621094 C 34.894531 16.621094 34.886719 16.617188 34.863281 16.589844 C 34.820312 16.542969 34.789062 16.4375 34.785156 16.351562 C 34.785156 16.289062 34.789062 16.285156 34.828125 16.292969 C 34.882812 16.296875 34.9375 16.269531 35.039062 16.179688 C 35.132812 16.101562 35.21875 16.082031 35.308594 16.125 Z M 35.308594 16.125 "/>
<path style=" stroke:none;fill-rule:nonzero;fill:rgb(0%,0%,0%);fill-opacity:1;" d="M 24.414062 16.703125 C 24.378906 16.710938 24.347656 16.734375 24.34375 16.753906 C 24.339844 16.769531 24.355469 16.789062 24.371094 16.789062 C 24.394531 16.789062 24.480469 16.832031 24.554688 16.882812 C 24.679688 16.96875 24.710938 16.976562 25.050781 16.996094 C 25.167969 17 25.332031 17.011719 25.414062 17.019531 C 25.75 17.042969 25.808594 17.042969 25.835938 17.003906 C 25.867188 16.953125 25.800781 16.890625 25.644531 16.832031 C 25.46875 16.765625 25.253906 16.730469 24.867188 16.703125 C 24.730469 16.695312 24.453125 16.695312 24.414062 16.703125 Z M 24.414062 16.703125 "/>
<path style=" stroke:none;fill-rule:nonzero;fill:rgb(0%,0%,0%);fill-opacity:1;" d="M 38.375 20.730469 C 38.355469 20.742188 38.359375 20.796875 38.378906 20.824219 C 38.414062 20.871094 38.496094 20.882812 38.875 20.914062 C 39.542969 20.96875 39.640625 20.988281 39.832031 21.113281 C 39.871094 21.136719 39.925781 21.167969 39.957031 21.179688 C 40.011719 21.203125 40.015625 21.207031 40.140625 21.207031 C 40.238281 21.207031 40.273438 21.203125 40.308594 21.191406 C 40.441406 21.152344 40.375 21.070312 40.144531 20.980469 C 39.960938 20.910156 39.8125 20.890625 39.066406 20.820312 C 38.847656 20.796875 38.636719 20.769531 38.535156 20.746094 C 38.429688 20.71875 38.398438 20.71875 38.375 20.730469 Z M 38.375 20.730469 "/>
<path style=" stroke:none;fill-rule:nonzero;fill:rgb(0%,0%,0%);fill-opacity:1;" d="M 7.65625 32.035156 C 7.652344 32.039062 7.644531 32.0625 7.640625 32.089844 C 7.628906 32.148438 7.621094 32.171875 7.582031 32.234375 C 7.511719 32.347656 7.472656 32.492188 7.398438 32.933594 C 7.363281 33.144531 7.339844 33.339844 7.320312 33.617188 C 7.292969 34.023438 7.273438 34.171875 7.238281 34.355469 C 7.203125 34.527344 7.195312 34.597656 7.199219 34.710938 C 7.203125 34.796875 7.207031 34.820312 7.222656 34.855469 C 7.246094 34.90625 7.28125 34.9375 7.332031 34.953125 C 7.414062 34.976562 7.441406 34.964844 7.460938 34.902344 C 7.476562 34.847656 7.488281 34.644531 7.488281 34.414062 C 7.488281 34.109375 7.503906 33.851562 7.550781 33.417969 C 7.570312 33.257812 7.59375 33.019531 7.605469 32.890625 C 7.644531 32.53125 7.667969 32.378906 7.710938 32.238281 C 7.757812 32.101562 7.757812 32.058594 7.710938 32.035156 C 7.679688 32.019531 7.667969 32.019531 7.65625 32.035156 Z M 7.65625 32.035156 "/>
<path style=" stroke:none;fill-rule:nonzero;fill:rgb(0%,0%,0%);fill-opacity:1;" d="M 6.28125 34.804688 C 6.125 34.84375 5.949219 34.96875 5.816406 35.132812 C 5.667969 35.320312 5.429688 35.71875 5.367188 35.890625 C 5.246094 36.226562 5.207031 37.875 5.292969 39.023438 C 5.3125 39.261719 5.324219 39.308594 5.394531 39.457031 C 5.496094 39.664062 5.597656 39.953125 5.613281 40.101562 C 5.625 40.171875 5.65625 40.273438 5.722656 40.429688 C 5.75 40.496094 5.792969 40.621094 5.824219 40.703125 C 5.851562 40.785156 5.890625 40.894531 5.914062 40.945312 C 5.976562 41.085938 6.070312 41.269531 6.121094 41.335938 C 6.183594 41.414062 6.230469 41.492188 6.308594 41.640625 C 6.484375 41.964844 6.691406 42.199219 6.996094 42.414062 C 7.144531 42.519531 7.792969 42.941406 7.8125 42.949219 C 7.824219 42.953125 7.90625 42.988281 7.996094 43.027344 C 8.179688 43.105469 8.3125 43.15625 8.414062 43.179688 C 8.503906 43.199219 8.558594 43.21875 8.707031 43.273438 C 8.871094 43.339844 8.957031 43.363281 9.050781 43.371094 C 9.226562 43.390625 9.273438 43.421875 9.726562 43.867188 C 9.878906 44.011719 10.042969 44.167969 10.09375 44.210938 C 10.324219 44.40625 10.5625 44.566406 11.085938 44.871094 C 11.28125 44.988281 11.339844 45.019531 11.367188 45.019531 C 11.390625 45.019531 11.394531 45.015625 11.402344 44.964844 C 11.40625 44.941406 11.417969 44.917969 11.425781 44.910156 C 11.4375 44.898438 11.441406 44.898438 11.476562 44.910156 C 11.5 44.914062 11.515625 44.921875 11.519531 44.925781 C 11.523438 44.925781 11.527344 44.964844 11.527344 45.003906 C 11.535156 45.113281 11.53125 45.109375 11.683594 45.109375 C 11.75 45.113281 11.8125 45.113281 11.824219 45.109375 C 11.851562 45.101562 11.863281 45.082031 11.867188 45.050781 C 11.867188 45 11.875 44.992188 11.886719 45.039062 C 11.902344 45.113281 11.9375 45.15625 11.957031 45.128906 C 11.957031 45.121094 11.960938 45.101562 11.964844 45.078125 C 11.972656 45.023438 11.984375 45.019531 12.109375 45.023438 C 12.253906 45.027344 12.328125 45.058594 12.347656 45.121094 C 12.355469 45.15625 12.390625 45.179688 12.46875 45.199219 C 12.570312 45.234375 12.621094 45.238281 12.730469 45.234375 L 12.835938 45.226562 L 12.871094 45.253906 C 12.886719 45.269531 12.929688 45.3125 12.964844 45.351562 C 13.039062 45.4375 13.078125 45.472656 13.175781 45.535156 C 13.3125 45.625 13.53125 45.726562 13.769531 45.820312 C 13.914062 45.875 14.507812 46.078125 14.71875 46.144531 C 14.808594 46.175781 14.910156 46.203125 14.949219 46.207031 C 15.027344 46.222656 15.164062 46.273438 15.359375 46.359375 C 15.667969 46.503906 15.804688 46.539062 16.265625 46.617188 C 16.523438 46.660156 16.59375 46.679688 16.707031 46.726562 C 16.789062 46.765625 16.875 46.792969 16.898438 46.792969 C 16.921875 46.792969 16.976562 46.816406 17.042969 46.859375 C 17.195312 46.949219 17.480469 47.007812 17.976562 47.046875 C 18.285156 47.074219 18.535156 47.085938 18.792969 47.09375 C 19.378906 47.101562 19.675781 47.039062 20.023438 46.835938 C 20.125 46.773438 20.160156 46.757812 20.234375 46.742188 C 20.351562 46.71875 20.519531 46.707031 21.082031 46.679688 C 21.695312 46.652344 21.820312 46.640625 21.972656 46.601562 C 22.09375 46.574219 22.179688 46.539062 22.484375 46.390625 C 22.894531 46.191406 22.972656 46.164062 23.144531 46.148438 C 23.214844 46.144531 23.28125 46.132812 23.386719 46.105469 C 23.554688 46.066406 23.832031 45.976562 23.902344 45.941406 L 23.949219 45.917969 L 24.144531 45.910156 C 24.496094 45.898438 25.828125 45.886719 27.761719 45.882812 C 28.808594 45.878906 30.085938 45.875 30.597656 45.875 L 31.523438 45.871094 L 31.535156 45.796875 C 31.550781 45.726562 31.5625 45.726562 31.5625 45.796875 C 31.5625 45.820312 31.578125 45.847656 31.59375 45.847656 C 31.597656 45.847656 31.625 45.84375 31.660156 45.835938 C 31.746094 45.820312 32.207031 45.808594 32.808594 45.808594 L 33.285156 45.808594 L 33.292969 45.746094 C 33.300781 45.714844 33.308594 45.675781 33.316406 45.664062 C 33.335938 45.636719 33.386719 45.605469 33.511719 45.554688 C 33.648438 45.503906 33.875 45.390625 34.039062 45.300781 C 34.25 45.183594 34.417969 45.117188 34.617188 45.0625 C 34.765625 45.023438 35.042969 44.925781 35.144531 44.878906 C 35.328125 44.789062 35.464844 44.695312 35.613281 44.558594 C 35.792969 44.386719 35.929688 44.199219 36.070312 43.921875 C 36.128906 43.808594 36.144531 43.773438 36.144531 43.746094 C 36.144531 43.675781 36.078125 43.625 35.988281 43.625 C 35.941406 43.625 35.9375 43.628906 35.902344 43.660156 C 35.84375 43.710938 35.785156 43.816406 35.664062 44.078125 C 35.535156 44.359375 35.460938 44.453125 35.363281 44.453125 C 35.320312 44.453125 35.253906 44.429688 35.226562 44.398438 C 35.21875 44.386719 35.207031 44.363281 35.203125 44.335938 C 35.195312 44.308594 35.1875 44.277344 35.179688 44.261719 C 35.152344 44.207031 34.953125 44.03125 34.84375 43.96875 C 34.75 43.910156 34.699219 43.90625 34.511719 43.953125 C 34.351562 43.988281 34.21875 44.003906 34.011719 44.011719 C 33.753906 44.015625 33.738281 44.019531 33.476562 44.144531 C 33.382812 44.191406 33.28125 44.238281 33.25 44.246094 C 33.191406 44.261719 33.113281 44.265625 32.925781 44.253906 C 32.785156 44.242188 32.554688 44.253906 32.398438 44.273438 C 32.203125 44.300781 32.128906 44.292969 31.878906 44.21875 C 31.683594 44.160156 31.519531 44.136719 31.320312 44.136719 C 31.210938 44.136719 31.078125 44.125 31.003906 44.109375 C 30.972656 44.101562 30.917969 44.09375 30.882812 44.09375 C 30.820312 44.089844 30.820312 44.089844 30.796875 44.113281 C 30.785156 44.125 30.769531 44.152344 30.765625 44.167969 C 30.75 44.21875 30.757812 44.449219 30.78125 44.578125 C 30.789062 44.636719 30.796875 44.695312 30.800781 44.707031 C 30.804688 44.730469 30.800781 44.738281 30.777344 44.761719 C 30.710938 44.820312 30.675781 44.808594 30.425781 44.621094 L 30.25 44.492188 L 30.125 44.503906 C 29.894531 44.527344 29.902344 44.527344 29.847656 44.511719 C 29.796875 44.5 29.761719 44.484375 29.609375 44.390625 C 29.570312 44.363281 29.539062 44.351562 29.515625 44.347656 C 29.484375 44.34375 29.476562 44.347656 29.449219 44.371094 C 29.410156 44.40625 29.375 44.46875 29.375 44.503906 C 29.375 44.535156 29.363281 44.570312 29.351562 44.582031 C 29.332031 44.589844 29.296875 44.585938 29.265625 44.570312 C 29.246094 44.5625 29.179688 44.519531 29.113281 44.476562 C 28.898438 44.332031 28.726562 44.238281 28.65625 44.226562 C 28.605469 44.21875 28.554688 44.246094 28.535156 44.289062 C 28.519531 44.3125 28.519531 44.320312 28.527344 44.347656 C 28.539062 44.390625 28.585938 44.433594 28.652344 44.46875 C 28.726562 44.507812 28.792969 44.5625 28.816406 44.597656 C 28.84375 44.648438 28.835938 44.652344 28.742188 44.652344 C 28.648438 44.652344 28.5625 44.632812 28.429688 44.578125 C 28.183594 44.480469 28.015625 44.453125 27.730469 44.453125 C 27.597656 44.453125 27.523438 44.457031 27.445312 44.464844 C 27.375 44.476562 27.292969 44.480469 27.191406 44.480469 C 27.109375 44.480469 27.039062 44.484375 27.03125 44.488281 C 27.023438 44.496094 27.023438 44.507812 27.023438 44.546875 C 27.027344 44.585938 27.039062 44.625 27.070312 44.703125 C 27.144531 44.878906 27.144531 44.910156 27.082031 44.941406 C 27.03125 44.96875 26.984375 44.964844 26.917969 44.925781 C 26.886719 44.910156 26.796875 44.871094 26.71875 44.84375 C 26.511719 44.765625 26.496094 44.753906 26.507812 44.675781 C 26.523438 44.570312 26.523438 44.550781 26.503906 44.511719 C 26.449219 44.410156 26.320312 44.257812 26.257812 44.230469 C 26.21875 44.210938 26.183594 44.214844 26.15625 44.238281 C 26.09375 44.289062 26.113281 44.394531 26.210938 44.566406 C 26.265625 44.65625 26.296875 44.734375 26.316406 44.816406 C 26.335938 44.882812 26.34375 44.984375 26.335938 45.015625 C 26.328125 45.058594 26.242188 45.074219 26.082031 45.058594 C 25.882812 45.042969 25.664062 45.003906 25.613281 44.976562 C 25.53125 44.9375 25.550781 44.855469 25.667969 44.699219 L 25.730469 44.625 L 25.714844 44.601562 C 25.683594 44.558594 25.398438 44.292969 25.316406 44.226562 C 25.148438 44.097656 24.945312 43.96875 24.808594 43.90625 C 24.722656 43.867188 24.570312 43.820312 24.542969 43.820312 C 24.515625 43.824219 24.515625 43.816406 24.523438 43.925781 C 24.523438 43.945312 24.519531 43.96875 24.507812 43.984375 C 24.472656 44.042969 24.488281 44.085938 24.585938 44.25 C 24.617188 44.296875 24.652344 44.363281 24.671875 44.398438 C 24.703125 44.460938 24.703125 44.460938 24.691406 44.476562 C 24.65625 44.515625 24.550781 44.484375 24.40625 44.394531 C 24.371094 44.371094 24.328125 44.347656 24.308594 44.339844 C 24.269531 44.328125 24.269531 44.332031 24.246094 44.34375 C 24.222656 44.363281 24.15625 44.449219 24.082031 44.566406 C 24.042969 44.621094 24.015625 44.65625 23.996094 44.667969 C 23.972656 44.679688 23.972656 44.679688 23.894531 44.664062 C 23.644531 44.609375 23.371094 44.59375 23.199219 44.628906 C 23.105469 44.648438 23.035156 44.667969 23.019531 44.6875 C 23 44.710938 22.996094 44.761719 23.011719 44.8125 C 23.042969 44.898438 23.109375 45.007812 23.144531 45.019531 C 23.160156 45.023438 23.15625 45.027344 23.128906 45.058594 C 23.058594 45.132812 22.980469 45.121094 22.679688 44.976562 C 22.585938 44.933594 22.496094 44.894531 22.476562 44.886719 L 22.445312 44.878906 L 22.320312 44.945312 C 22.253906 44.984375 22.101562 45.070312 21.984375 45.140625 C 21.746094 45.28125 21.628906 45.347656 21.566406 45.378906 L 21.527344 45.398438 L 21.46875 45.378906 C 21.371094 45.347656 21.359375 45.328125 21.277344 45.042969 C 21.234375 44.886719 21.179688 44.78125 21.128906 44.757812 C 21.105469 44.746094 21.101562 44.746094 21.0625 44.773438 C 21.007812 44.804688 20.863281 44.921875 20.804688 44.980469 C 20.722656 45.0625 20.707031 45.101562 20.582031 45.5 L 20.570312 45.535156 L 20.414062 45.609375 C 20.183594 45.722656 20.011719 45.769531 19.785156 45.792969 C 19.65625 45.808594 19.433594 45.800781 19.253906 45.773438 L 19.105469 45.753906 L 19.0625 45.710938 C 19.039062 45.683594 18.945312 45.585938 18.851562 45.488281 C 18.761719 45.390625 18.679688 45.308594 18.675781 45.308594 C 18.667969 45.304688 18.585938 45.320312 18.492188 45.335938 C 18.289062 45.375 18.144531 45.394531 17.921875 45.414062 C 17.675781 45.4375 17.625 45.453125 17.429688 45.570312 C 17.277344 45.660156 17.226562 45.679688 17.191406 45.675781 C 17.175781 45.671875 17.132812 45.65625 17.09375 45.636719 C 17.003906 45.589844 17 45.589844 16.996094 45.382812 C 16.988281 45.234375 16.988281 45.214844 16.96875 45.179688 C 16.945312 45.132812 16.867188 45.0625 16.808594 45.035156 C 16.765625 45.015625 16.75 45.011719 16.703125 45.011719 C 16.625 45.015625 16.621094 45.023438 16.636719 45.148438 C 16.648438 45.265625 16.664062 45.324219 16.699219 45.402344 C 16.726562 45.457031 16.726562 45.460938 16.714844 45.480469 C 16.707031 45.492188 16.695312 45.503906 16.683594 45.511719 C 16.664062 45.523438 16.660156 45.523438 16.636719 45.511719 C 16.582031 45.484375 16.535156 45.40625 16.367188 45.09375 C 16.222656 44.828125 16.160156 44.71875 16.128906 44.691406 C 16.109375 44.671875 16.101562 44.671875 16.054688 44.671875 C 16.027344 44.671875 15.96875 44.679688 15.925781 44.6875 C 15.832031 44.703125 15.675781 44.726562 15.566406 44.742188 C 15.4375 44.757812 15.425781 44.765625 15.398438 44.867188 C 15.382812 44.925781 15.359375 44.941406 15.289062 44.941406 C 15.238281 44.941406 15.234375 44.941406 15.214844 44.921875 C 15.199219 44.90625 15.179688 44.855469 15.152344 44.777344 C 15.082031 44.582031 15.046875 44.535156 14.984375 44.542969 C 14.964844 44.546875 14.941406 44.554688 14.925781 44.5625 C 14.832031 44.609375 14.640625 44.632812 14.085938 44.671875 L 13.761719 44.695312 L 13.566406 44.585938 C 13.351562 44.46875 13.195312 44.371094 13.035156 44.257812 C 12.84375 44.125 12.472656 43.878906 12.199219 43.707031 C 11.617188 43.339844 11.375 43.164062 11.027344 42.859375 C 10.707031 42.574219 10.382812 42.335938 10.109375 42.179688 C 9.988281 42.109375 9.933594 42.066406 9.90625 42.015625 C 9.894531 41.992188 9.867188 41.917969 9.84375 41.851562 C 9.765625 41.625 9.660156 41.445312 9.550781 41.335938 C 9.484375 41.277344 9.441406 41.257812 9.402344 41.273438 C 9.386719 41.277344 9.382812 41.285156 9.378906 41.304688 C 9.375 41.339844 9.386719 41.375 9.4375 41.488281 C 9.492188 41.605469 9.5 41.636719 9.472656 41.664062 C 9.410156 41.730469 9.34375 41.640625 9.214844 41.328125 C 9.132812 41.125 9.015625 40.890625 8.925781 40.738281 L 8.851562 40.621094 L 8.863281 40.53125 C 8.871094 40.480469 8.886719 40.382812 8.898438 40.3125 C 8.929688 40.105469 8.925781 40.058594 8.847656 39.847656 C 8.800781 39.707031 8.757812 39.550781 8.730469 39.429688 C 8.691406 39.226562 8.640625 39.125 8.453125 38.84375 L 8.328125 38.65625 L 8.386719 38.398438 L 8.445312 38.144531 L 8.355469 38.042969 C 8.308594 37.988281 8.230469 37.898438 8.1875 37.847656 L 8.105469 37.757812 L 8.121094 37.582031 C 8.140625 37.347656 8.132812 37.226562 8.101562 37.121094 C 8.058594 36.984375 7.992188 36.839844 7.957031 36.820312 C 7.945312 36.8125 7.84375 36.839844 7.742188 36.882812 L 7.675781 36.910156 L 7.675781 37.265625 C 7.675781 37.71875 7.6875 37.925781 7.726562 38.246094 C 7.78125 38.679688 7.785156 38.945312 7.734375 39.277344 C 7.707031 39.46875 7.710938 39.550781 7.753906 39.671875 C 7.867188 39.964844 7.867188 39.972656 7.867188 40.148438 C 7.867188 40.296875 7.84375 40.683594 7.832031 40.753906 C 7.820312 40.84375 7.785156 40.890625 7.695312 40.9375 C 7.617188 40.972656 7.535156 40.914062 7.390625 40.714844 C 7.230469 40.488281 7.152344 40.417969 6.828125 40.203125 L 6.683594 40.105469 L 6.152344 40.105469 L 6.050781 39.949219 C 5.859375 39.652344 5.777344 39.472656 5.6875 39.125 C 5.605469 38.796875 5.527344 38.378906 5.503906 38.109375 C 5.480469 37.828125 5.476562 36.976562 5.496094 36.703125 C 5.523438 36.378906 5.5625 36.175781 5.644531 35.972656 C 5.691406 35.855469 5.820312 35.597656 5.882812 35.507812 C 5.957031 35.394531 6.011719 35.332031 6.234375 35.109375 C 6.457031 34.886719 6.488281 34.847656 6.484375 34.8125 L 6.480469 34.789062 L 6.410156 34.789062 C 6.359375 34.789062 6.324219 34.792969 6.28125 34.804688 Z M 24.753906 45.101562 C 24.769531 45.117188 24.761719 45.152344 24.734375 45.195312 C 24.703125 45.238281 24.597656 45.324219 24.445312 45.421875 C 24.175781 45.601562 24.097656 45.617188 23.980469 45.515625 C 23.960938 45.5 23.933594 45.46875 23.917969 45.449219 C 23.875 45.382812 23.890625 45.351562 23.980469 45.339844 C 24.054688 45.328125 24.148438 45.292969 24.316406 45.214844 C 24.488281 45.132812 24.617188 45.089844 24.6875 45.089844 C 24.726562 45.089844 24.742188 45.09375 24.753906 45.101562 Z M 24.753906 45.101562 "/>
<path style=" stroke:none;fill-rule:nonzero;fill:rgb(0%,0%,0%);fill-opacity:1;" d="M 34.074219 38.613281 C 34.039062 38.628906 34.003906 38.660156 33.933594 38.734375 C 33.710938 38.953125 33.359375 39.382812 33.359375 39.429688 C 33.359375 39.449219 33.425781 39.484375 33.542969 39.523438 C 33.652344 39.5625 33.832031 39.636719 33.910156 39.675781 C 33.996094 39.71875 34.09375 39.757812 34.121094 39.757812 C 34.140625 39.757812 34.144531 39.75 34.175781 39.695312 C 34.214844 39.613281 34.28125 39.414062 34.332031 39.21875 C 34.390625 38.972656 34.390625 38.949219 34.324219 38.816406 C 34.246094 38.664062 34.1875 38.59375 34.136719 38.59375 C 34.125 38.59375 34.097656 38.605469 34.074219 38.613281 Z M 34.074219 38.613281 "/>
<path style=" stroke:none;fill-rule:nonzero;fill:rgb(0%,0%,0%);fill-opacity:1;" d="M 12.183594 38.796875 C 12.152344 38.804688 12.117188 38.839844 12.097656 38.875 C 12.066406 38.9375 12.058594 39 12.058594 39.179688 C 12.058594 39.417969 12.058594 39.421875 12.234375 39.707031 L 12.335938 39.871094 L 12.464844 39.875 C 12.53125 39.875 12.601562 39.882812 12.617188 39.886719 C 12.65625 39.898438 12.695312 39.925781 12.714844 39.949219 C 12.726562 39.96875 12.726562 39.972656 12.71875 39.996094 C 12.710938 40.011719 12.679688 40.054688 12.652344 40.09375 C 12.585938 40.175781 12.550781 40.234375 12.558594 40.253906 C 12.566406 40.273438 12.597656 40.265625 12.683594 40.230469 C 12.742188 40.203125 12.777344 40.191406 12.832031 40.179688 C 12.847656 40.175781 12.855469 40.167969 12.863281 40.152344 C 12.867188 40.140625 12.875 40.042969 12.878906 39.933594 C 12.882812 39.699219 12.894531 39.636719 12.921875 39.609375 C 12.976562 39.546875 12.894531 39.519531 12.714844 39.542969 C 12.660156 39.550781 12.609375 39.558594 12.597656 39.558594 C 12.589844 39.5625 12.578125 39.546875 12.542969 39.472656 C 12.4375 39.25 12.417969 39.175781 12.40625 38.960938 C 12.402344 38.878906 12.394531 38.804688 12.390625 38.800781 C 12.382812 38.792969 12.207031 38.789062 12.183594 38.796875 Z M 12.183594 38.796875 "/>
<path style=" stroke:none;fill-rule:nonzero;fill:rgb(0%,0%,0%);fill-opacity:1;" d="M 14.753906 38.859375 C 14.710938 38.878906 14.640625 38.929688 14.53125 39.027344 C 14.351562 39.179688 14.253906 39.285156 14.234375 39.355469 C 14.214844 39.410156 14.238281 39.46875 14.273438 39.46875 C 14.316406 39.46875 14.421875 39.394531 14.699219 39.171875 C 14.964844 38.957031 14.980469 38.9375 14.929688 38.890625 C 14.867188 38.839844 14.8125 38.832031 14.753906 38.859375 Z M 14.753906 38.859375 "/>
<path style=" stroke:none;fill-rule:nonzero;fill:rgb(0%,0%,0%);fill-opacity:1;" d="M 11.378906 39.273438 C 11.332031 39.316406 11.300781 39.367188 11.265625 39.480469 C 11.226562 39.597656 11.203125 39.722656 11.207031 39.796875 C 11.210938 39.875 11.273438 40.054688 11.332031 40.183594 C 11.367188 40.25 11.382812 40.273438 11.4375 40.324219 C 11.539062 40.425781 11.722656 40.546875 11.773438 40.546875 C 11.789062 40.546875 11.820312 40.535156 11.84375 40.523438 C 11.867188 40.511719 11.902344 40.496094 11.917969 40.496094 C 11.96875 40.484375 11.960938 40.460938 11.871094 40.363281 C 11.789062 40.269531 11.746094 40.203125 11.675781 40.0625 C 11.558594 39.828125 11.515625 39.675781 11.503906 39.480469 C 11.496094 39.367188 11.484375 39.289062 11.464844 39.253906 C 11.453125 39.226562 11.425781 39.234375 11.378906 39.273438 Z M 11.378906 39.273438 "/>
</g>
</svg>
